<?xml version="1.0" encoding="UTF-8"?>
<svg version="1.1" xmlns="http://www.w3.org/2000/svg" width="1024" height="1024">
<path d="M0 0 C2.26290045 1.12291176 2.26290045 1.12291176 4.36962891 1.8984375 C8.67843273 3.76723225 10.17786599 6.27699179 12.00805664 10.37109375 C12.8749604 12.61080699 13.71284464 14.8618835 14.52758789 17.12109375 C14.9875415 18.34642822 15.44749512 19.5717627 15.92138672 20.83422852 C17.44135246 24.91345529 18.89711067 29.01409573 20.34008789 33.12109375 C20.59290527 33.83867859 20.84572266 34.55626343 21.10620117 35.29559326 C50.62808625 119.32246846 64.51826484 207.44162817 41.34008789 434.12109375 C41.10352478 435.10181854 41.10352478 435.10181854 40.86218262 436.10235596 C34.31596193 463.12586082 25.35536498 489.39288838 15.84008789 515.49609375 C15.44321777 516.5946167 15.04634766 517.69313965 14.63745117 518.82495117 C14.0726001 520.34439331 14.0726001 520.34439331 13.49633789 521.89453125 C13.1747168 522.76513184 12.8530957 523.63573242 12.52172852 524.53271484 C9.73945114 530.62728193 7.14629213 533.73789003 0.99633789 536.49609375 C0.36841339 536.78231094 -0.25951111 537.06852814 -0.90646362 537.36341858 C-2.98285462 538.30208814 -5.07009419 539.21274832 -7.15991211 540.12109375 C-8.64522772 540.77892924 -10.13041398 541.43705688 -11.61547852 542.09545898 C-52.91325158 560.26902216 -95.69457179 574.92570532 -139.65991211 585.12109375 C-140.67903687 585.35832153 -140.67903687 585.35832153 -141.71875 585.6003418 C-170.19179742 592.20126596 -198.9944125 597.07752571 -228.03491211 600.37109375 C-228.70100494 600.44822601 -229.36709778 600.52535828 -230.05337524 600.60482788 C-255.32912065 603.48911768 -280.65648595 604.48505896 -306.08138657 604.37904358 C-308.14187363 604.37091842 -310.20234955 604.36600055 -312.2628479 604.36169434 C-332.12401387 604.31396961 -351.87780094 604.05927717 -371.65991211 602.12109375 C-373.05180888 601.9905618 -374.44373737 601.86036766 -375.83569336 601.73046875 C-453.71983174 594.36031957 -529.66619474 575.03096891 -616.99414062 536.38720703 C-618.58535632 535.63145609 -620.19178557 534.90493577 -621.82373047 534.24169922 C-626.84988705 531.96653954 -628.29905997 528.5788474 -630.22094727 523.71166992 C-630.59268066 522.69177979 -630.96441406 521.67188965 -631.34741211 520.62109375 C-631.76039551 519.53739502 -632.17337891 518.45369629 -632.59887695 517.3371582 C-657.5341696 450.79520477 -673.5893515 381.14872014 -677.65991211 310.12109375 C-677.71630859 309.22841797 -677.77270508 308.33574219 -677.83081055 307.41601562 C-682.11713879 238.47968322 -674.88485692 169.14824889 -658.65991211 102.12109375 C-658.50220337 101.46727722 -658.34449463 100.81346069 -658.18200684 100.13983154 C-651.62970754 73.09123354 -642.67793646 46.7909703 -633.09741211 20.68359375 C-632.69216309 19.57669189 -632.28691406 18.46979004 -631.86938477 17.3293457 C-631.48959473 16.31316162 -631.10980469 15.29697754 -630.71850586 14.25 C-630.39164795 13.3741626 -630.06479004 12.4983252 -629.72802734 11.59594727 C-627.36671082 6.1247094 -625.52632683 3.60358265 -620.03491211 1.0625 C-618.87193604 0.51899902 -617.70895996 -0.02450195 -616.51074219 -0.58447266 C-615.22767571 -1.16299087 -613.94404739 -1.74026435 -612.65991211 -2.31640625 C-611.31570829 -2.93007301 -609.9715524 -3.54384479 -608.62744141 -4.15771484 C-537.09388161 -36.5710397 -460.7274287 -56.68410253 -382.65991211 -64.87890625 C-381.47440765 -65.00425751 -381.47440765 -65.00425751 -380.26495361 -65.13214111 C-300.26589713 -73.4569421 -218.06528829 -67.38446906 0 0 Z " fill="#3F8630" transform="translate(820.659912109375,243.87890625)"/>
<path d="M0 0 C2.26290045 1.12291176 2.26290045 1.12291176 4.36962891 1.8984375 C8.67843273 3.76723225 10.17786599 6.27699179 12.00805664 10.37109375 C12.8749604 12.61080699 13.71284464 14.8618835 14.52758789 17.12109375 C14.9875415 18.34642822 15.44749512 19.5717627 15.92138672 20.83422852 C17.44135246 24.91345529 18.89711067 29.01409573 20.34008789 33.12109375 C20.59290527 33.83867859 20.84572266 34.55626343 21.10620117 35.29559326 C50.62808625 119.32246846 64.51826484 207.44162817 41.34008789 434.12109375 C41.10352478 435.10181854 41.10352478 435.10181854 40.86218262 436.10235596 C34.31596193 463.12586082 25.35536498 489.39288838 15.84008789 515.49609375 C15.44321777 516.5946167 15.04634766 517.69313965 14.63745117 518.82495117 C14.0726001 520.34439331 14.0726001 520.34439331 13.49633789 521.89453125 C13.1747168 522.76513184 12.8530957 523.63573242 12.52172852 524.53271484 C9.73945114 530.62728193 7.14629213 533.73789003 0.99633789 536.49609375 C0.36841339 536.78231094 -0.25951111 537.06852814 -0.90646362 537.36341858 C-2.98285462 538.30208814 -5.07009419 539.21274832 -7.15991211 540.12109375 C-8.64522772 540.77892924 -10.13041398 541.43705688 -11.61547852 542.09545898 C-52.91325158 560.26902216 -95.69457179 574.92570532 -139.65991211 585.12109375 C-140.67903687 585.35832153 -140.67903687 585.35832153 -141.71875 585.6003418 C-170.19179742 592.20126596 -198.9944125 597.07752571 -228.03491211 600.37109375 C-228.70100494 600.44822601 -229.36709778 600.52535828 -230.05337524 600.60482788 C-255.32912065 603.48911768 -280.65648595 604.48505896 -306.08138657 604.37904358 C-308.14187363 604.37091842 -310.20234955 604.36600055 -312.2628479 604.36169434 C-332.12401387 604.31396961 -351.87780094 604.05927717 -371.65991211 602.12109375 C-373.05180888 601.9905618 -374.44373737 601.86036766 -375.83569336 601.73046875 C-453.71983174 594.36031957 -529.66619474 575.03096891 -616.99414062 536.38720703 C-618.58535632 535.63145609 -620.19178557 534.90493577 -621.82373047 534.24169922 C-626.84988705 531.96653954 -628.29905997 528.5788474 -630.22094727 523.71166992 C-630.59268066 522.69177979 -630.96441406 521.67188965 -631.34741211 520.62109375 C-631.76039551 519.53739502 -632.17337891 518.45369629 -632.59887695 517.3371582 C-657.5341696 450.79520477 -673.5893515 381.14872014 -677.65991211 310.12109375 C-677.71630859 309.22841797 -677.77270508 308.33574219 -677.83081055 307.41601562 C-682.11713879 238.47968322 -674.88485692 169.14824889 -658.65991211 102.12109375 C-658.50220337 101.46727722 -658.34449463 100.81346069 -658.18200684 100.13983154 C-651.62970754 73.09123354 -642.67793646 46.7909703 -633.09741211 20.68359375 C-632.69216309 19.57669189 -632.28691406 18.46979004 -631.86938477 17.3293457 C-631.48959473 16.31316162 -631.10980469 15.29697754 -630.71850586 14.25 C-630.39164795 13.3741626 -630.06479004 12.4983252 -629.72802734 11.59594727 C-627.36671082 6.1247094 -625.52632683 3.60358265 -620.03491211 1.0625 C-618.87193604 0.51899902 -617.70895996 -0.02450195 -616.51074219 -0.58447266 C-615.22767571 -1.16299087 -613.94404739 -1.74026435 -612.65991211 -2.31640625 C-611.31570829 -2.93007301 -609.9715524 -3.54384479 -608.62744141 -4.15771484 C-537.09388161 -36.5710397 -460.7274287 -56.68410253 -382.65991211 -64.87890625 C-381.47440765 -65.00425751 -381.47440765 -65.00425751 -380.26495361 -65.13214111 C-300.26589713 -73.4569421 -218.06528829 -67.38446906 0 0 Z M-385.94067383 -28.40332031 C-388.75133581 -28.00701587 -391.56254428 -27.61862363 -394.37524414 -27.23730469 C-422.4558221 -23.42776683 -449.91698403 -18.58695011 -477.47241211 -11.94140625 C-478.32715118 -11.73616333 -479.18189026 -11.53092041 -480.06253052 -11.31945801 C-492.73330021 -8.26337897 -505.20910631 -4.7301542 -517.65991211 -0.87890625 C-519.2350937 -0.39495403 -520.81036792 0.08869683 -522.38574219 0.57202148 C-528.07747926 2.31936107 -533.72282763 4.10675408 -539.28979492 6.22631836 C-542.20698951 7.32762843 -545.136316 8.39374551 -548.06616211 9.4609375 C-549.22245117 9.88439453 -550.37874023 10.30785156 -551.57006836 10.74414062 C-553.96203879 11.61998181 -556.35527161 12.49238308 -558.74975586 13.36132812 C-564.31092954 15.40414499 -569.69977464 17.49766972 -574.94702148 20.25219727 C-578.59163341 22.10099627 -582.48488658 23.37380717 -586.31616211 24.77734375 C-587.41959961 25.22078125 -588.52303711 25.66421875 -589.65991211 26.12109375 C-590.67855347 26.49355225 -590.67855347 26.49355225 -591.71777344 26.87353516 C-595.72230895 28.5381294 -597.98198845 29.93363327 -599.79663086 33.95703125 C-600.34299996 35.45967108 -600.85883317 36.97368242 -601.34741211 38.49609375 C-601.77147339 39.69721802 -601.77147339 39.69721802 -602.20410156 40.92260742 C-602.77564847 42.54854588 -603.33530201 44.17871741 -603.88256836 45.81298828 C-604.57754232 47.87651965 -605.3080349 49.91995076 -606.06616211 51.9609375 C-608.883957 59.59819255 -611.33759655 67.3209499 -613.65991211 75.12109375 C-614.03889648 76.35859375 -614.41788086 77.59609375 -614.80834961 78.87109375 C-620.8241013 98.6769859 -625.47692062 118.85755868 -629.65991211 139.12109375 C-629.87534668 140.15492188 -630.09078125 141.18875 -630.31274414 142.25390625 C-634.7821821 163.88085551 -637.3065979 185.52430825 -639.28491211 207.49609375 C-639.34753235 208.18622559 -639.41015259 208.87635742 -639.47467041 209.58740234 C-641.09863052 227.66184649 -641.82782807 245.65021501 -641.7902832 263.79882812 C-641.78494161 266.85421768 -641.7902573 269.90945871 -641.79663086 272.96484375 C-641.80399322 291.54558519 -641.29309431 310.12133371 -639.47241211 328.62109375 C-639.34785645 329.89170654 -639.22330078 331.16231934 -639.0949707 332.47143555 C-635.18380921 370.73313835 -628.55069707 409.37578449 -617.17163086 446.13671875 C-616.17168854 449.38257832 -615.23718339 452.63500328 -614.36694336 455.91796875 C-613.209858 460.27842212 -611.94455312 464.59705343 -610.6237793 468.91064453 C-609.91495648 471.27159187 -609.23603919 473.63214352 -608.57885742 476.00732422 C-604.17135583 493.93192698 -604.17135583 493.93192698 -593.25366211 507.8984375 C-588.77579641 510.24787467 -584.06082281 511.6608635 -579.20776367 513.03173828 C-575.10590433 514.29119991 -571.18314939 515.83719763 -567.21459961 517.4609375 C-548.96861247 524.89474459 -530.54902094 531.49381541 -511.65991211 537.12109375 C-510.13841553 537.57790527 -510.13841553 537.57790527 -508.58618164 538.04394531 C-481.39981331 546.13339731 -453.63063305 552.4514588 -425.65991211 557.12109375 C-424.44174805 557.32831055 -423.22358398 557.53552734 -421.96850586 557.74902344 C-404.96652551 560.60718951 -387.94839807 562.73958513 -370.78491211 564.37109375 C-369.91752411 564.45408722 -369.05013611 564.53708069 -368.15646362 564.62258911 C-349.01813457 566.43200385 -329.94657412 567.35678411 -310.72241211 567.37109375 C-309.76502136 567.37210083 -308.80763062 567.37310791 -307.82122803 567.37414551 C-276.68993366 567.35238209 -245.69974931 565.07743705 -214.89575195 560.58984375 C-211.8780799 560.15269796 -208.85835038 559.74084575 -205.83569336 559.33984375 C-185.82183902 556.65457327 -166.21921183 552.45087864 -146.57739258 547.80419922 C-144.06791284 547.21662396 -141.55581171 546.64801748 -139.03881836 546.09375 C-106.31792831 538.83359736 -73.69960301 527.19357627 -42.75756836 514.38964844 C-39.72851248 513.14918703 -36.68182428 511.96478709 -33.62866211 510.78515625 C-31.80465404 510.04565506 -29.98166697 509.30362844 -28.15991211 508.55859375 C-27.34651367 508.25542236 -26.53311523 507.95225098 -25.69506836 507.63989258 C-21.30982666 505.77169982 -19.25589242 504.12105417 -17.42944336 499.66015625 C-16.82152499 497.81967408 -16.23291134 495.9727447 -15.65991211 494.12109375 C-14.89097027 492.04374564 -14.11316339 489.96966373 -13.32788086 487.8984375 C-8.05312961 473.44988449 -3.36339851 458.97507469 0.55639648 444.09423828 C1.32141553 441.19193238 2.10434471 438.29497934 2.89086914 435.3984375 C6.83375411 420.74187824 10.19343594 405.96741123 13.34008789 391.12109375 C13.50105957 390.36844238 13.66203125 389.61579102 13.82788086 388.84033203 C17.88475822 369.6071973 20.05332485 349.90786504 22.02758789 330.37109375 C22.20644531 328.60838135 22.20644531 328.60838135 22.38891602 326.81005859 C24.27355302 307.36724998 24.58450426 288.01604475 24.59008789 268.49609375 C24.59052975 267.78765823 24.5909716 267.07922272 24.59142685 266.34931946 C24.60540973 223.50847967 21.31444302 181.09499491 12.34008789 139.12109375 C12.09476318 137.9602124 12.09476318 137.9602124 11.84448242 136.77587891 C9.8851153 127.56016289 7.72327705 118.40053426 5.38696289 109.2734375 C4.65319447 106.3981371 3.96159382 103.51617915 3.29321289 100.625 C0.15982631 87.27064113 -4.09285857 74.38185157 -8.53881836 61.41259766 C-9.60815367 58.27305525 -10.65510369 55.12722435 -11.69116211 51.9765625 C-12.0039209 51.02644287 -12.31667969 50.07632324 -12.63891602 49.09741211 C-13.21574419 47.34225129 -13.79106041 45.58659247 -14.36450195 43.83032227 C-15.10711213 41.58522708 -15.87275968 39.35092713 -16.65991211 37.12109375 C-16.89307129 36.44965332 -17.12623047 35.77821289 -17.36645508 35.08642578 C-18.4324151 32.28582503 -19.3101099 30.39796423 -21.68334961 28.51953125 C-22.45936523 28.18179688 -23.23538086 27.8440625 -24.03491211 27.49609375 C-24.92049805 27.10164063 -25.80608398 26.7071875 -26.71850586 26.30078125 C-30.93850184 24.60829946 -35.17402934 22.96601073 -39.43334961 21.375 C-42.4288734 20.21087998 -45.31620717 18.92794391 -48.22241211 17.55859375 C-52.92877111 15.37006821 -57.69398908 13.67675614 -62.64038086 12.11328125 C-67.60794931 10.48098838 -72.46973873 8.58302742 -77.34350586 6.69140625 C-86.24238561 3.24835221 -95.19903987 0.35084412 -104.38208008 -2.23144531 C-106.72093407 -2.8962514 -109.05193971 -3.58428714 -111.38256836 -4.27734375 C-121.78285456 -7.34691891 -132.24598224 -10.07502659 -142.78491211 -12.62890625 C-143.99373047 -12.92265137 -145.20254883 -13.21639648 -146.44799805 -13.51904297 C-152.82093009 -15.04223892 -159.17645485 -16.39956515 -165.64379883 -17.45800781 C-167.65991211 -17.87890625 -167.65991211 -17.87890625 -168.65991211 -18.87890625 C-171.59171411 -19.39325748 -174.53526167 -19.77963907 -177.48413086 -20.18359375 C-181.0380494 -20.7232373 -184.51983588 -21.50398954 -188.02709961 -22.2890625 C-196.33007129 -24.09226366 -204.68125822 -25.30088229 -213.09741211 -26.44140625 C-213.88737579 -26.54973785 -214.67733948 -26.65806946 -215.49124146 -26.76968384 C-227.58121048 -28.42211615 -239.6528115 -29.82032055 -251.82885742 -30.66845703 C-254.80512695 -30.88970094 -257.77421013 -31.16120928 -260.74584961 -31.4375 C-302.12098614 -35.0571325 -344.81607737 -34.23061585 -385.94067383 -28.40332031 Z " fill="#327527" transform="translate(820.659912109375,243.87890625)"/>
<path d="M0 0 C2.77751276 0.6233362 5.31666383 1.01153766 8.1328125 1.28125 C11.86717397 1.65488259 14.9917033 2.56855907 18.55078125 3.796875 C22.6186838 4.76288603 26.71184184 5.61235792 30.80078125 6.484375 C48.57888131 10.36079374 66.23794319 14.7607596 83.43359375 20.74609375 C86.39042624 21.74282049 89.34357421 22.57726251 92.36328125 23.359375 C96.74674846 24.51189666 100.84918913 26.02694143 105.03125 27.765625 C107.62058457 28.82544566 110.23002934 29.78930051 112.86328125 30.734375 C125.49632536 35.28938809 138.0801041 40.11840053 150.25537109 45.80078125 C152.50794124 46.829655 152.50794124 46.829655 154.77807617 47.4765625 C158.41449176 48.69960226 160.86994042 49.75273651 163.00756836 53.03100586 C164.23681749 55.89610796 165.2333797 58.76254322 166.17578125 61.734375 C166.54421143 62.80469971 166.9126416 63.87502441 167.29223633 64.9777832 C168.04572285 67.18124682 168.78410361 69.38993351 169.50732422 71.60351562 C170.45992687 74.51882744 171.45042416 77.41685842 172.4609375 80.3125 C179.12210245 99.56047244 184.2998289 119.14586014 188.89550781 138.97851562 C189.45484799 141.38426192 190.02714495 143.78627254 190.60546875 146.1875 C196.07354088 169.31630533 200.09866192 193.16351799 202.55078125 216.796875 C202.75380859 218.64635742 202.75380859 218.64635742 202.9609375 220.53320312 C205.3250003 242.49353004 205.8454124 264.43709411 205.86130142 286.50630569 C205.86324767 288.5737033 205.86835324 290.6410748 205.87387085 292.70846558 C205.90899369 310.49517078 205.2556016 328.09063398 203.55078125 345.796875 C203.46819061 346.66178558 203.38559998 347.52669617 203.30050659 348.41781616 C202.85697474 352.98155663 202.37390579 357.53961487 201.85571289 362.09545898 C201.61005665 364.26282489 201.37402677 366.43110307 201.13867188 368.59960938 C199.27066654 385.49568943 196.45870523 402.17255706 192.92578125 418.796875 C192.75670258 419.59804749 192.5876239 420.39921997 192.41342163 421.22467041 C189.82541688 433.44137425 186.97344657 445.57778352 183.86328125 457.671875 C183.68327576 458.37505859 183.50327026 459.07824219 183.31781006 459.80273438 C179.32274494 475.3311203 174.44970734 490.45914156 168.86328125 505.484375 C168.37270045 506.81432539 167.88246538 508.14440336 167.39257812 509.47460938 C166.12135234 512.91894246 164.84689497 516.36180457 163.55078125 519.796875 C163.27556641 520.69946045 163.00035156 521.6020459 162.71679688 522.53198242 C161.14648757 525.58218331 159.59152547 526.16725151 156.46875 527.5234375 C155.40712646 527.99209229 154.34550293 528.46074707 153.25170898 528.94360352 C151.51256226 529.6753479 151.51256226 529.6753479 149.73828125 530.421875 C148.52922119 530.94257568 147.32016113 531.46327637 146.07446289 531.99975586 C115.75319023 544.97286409 84.33529956 555.91751929 52.36523438 564.07568359 C49.2299307 564.87909156 46.10172247 565.70780228 42.97265625 566.53515625 C27.59883719 570.54506302 12.19888023 573.68330527 -3.47021484 576.29443359 C-5.98471092 576.7185307 -8.49301659 577.16290498 -11 577.62890625 C-31.31735478 581.40469785 -51.84359951 584.22769605 -72.44921875 585.796875 C-73.56635254 585.88710938 -74.68348633 585.97734375 -75.83447266 586.0703125 C-111.29430097 588.86666502 -147.00942455 588.87405397 -182.44921875 585.796875 C-184.24721924 585.64412109 -184.24721924 585.64412109 -186.08154297 585.48828125 C-255.59715619 579.40179059 -325.2387003 563.65415687 -389.63671875 536.5859375 C-393.86708027 534.80790804 -398.06553335 533.23651105 -402.44921875 531.8828125 C-414.4539464 527.91228979 -414.4539464 527.91228979 -418.08349609 522.24511719 C-420.98021546 516.29844406 -422.89662949 510.13792402 -424.6105957 503.76416016 C-425.42990355 500.86521763 -426.40157827 498.08470462 -427.4609375 495.265625 C-429.55295505 489.64766735 -431.18822909 483.95355627 -432.76171875 478.171875 C-433.37061688 475.9555981 -433.9800055 473.7394559 -434.58984375 471.5234375 C-434.89728516 470.40356445 -435.20472656 469.28369141 -435.52148438 468.12988281 C-436.40482737 464.95635689 -437.31863227 461.79369053 -438.24609375 458.6328125 C-448.78304525 422.52313278 -455.30759638 384.29903773 -458.51171875 346.796875 C-458.58970703 345.96027344 -458.66769531 345.12367188 -458.74804688 344.26171875 C-460.36402213 325.6980361 -460.65539506 307.04517252 -460.63671875 288.421875 C-460.63644684 287.38572052 -460.63617493 286.34956604 -460.63589478 285.28201294 C-460.61406755 267.04056627 -459.96225961 248.97671473 -458.44921875 230.796875 C-458.29646484 228.86086426 -458.29646484 228.86086426 -458.140625 226.88574219 C-455.94062665 199.48761455 -451.38552569 172.61727572 -445.44921875 145.796875 C-445.10721436 144.22776367 -445.10721436 144.22776367 -444.75830078 142.62695312 C-439.99540855 120.85559947 -433.82059529 99.69187985 -426.82421875 78.546875 C-426.59433258 77.84899872 -426.36444641 77.15112244 -426.12759399 76.43209839 C-424.61948695 71.86788631 -423.04945325 67.32961967 -421.44921875 62.796875 C-421.06628662 61.64445312 -420.68335449 60.49203125 -420.28881836 59.3046875 C-417.14473087 50.63025103 -417.14473087 50.63025103 -412.59375 48.015625 C-411.16713066 47.40068041 -409.72185092 46.82735935 -408.26171875 46.296875 C-407.55724609 46.00296875 -406.85277344 45.7090625 -406.12695312 45.40625 C-403.91566521 44.49371852 -401.68606714 43.64458563 -399.44921875 42.796875 C-397.86860437 42.16572574 -396.28921933 41.53149096 -394.7109375 40.89453125 C-388.63997873 38.46567953 -382.5474722 36.09373408 -376.44921875 33.734375 C-375.33804688 33.30060547 -374.226875 32.86683594 -373.08203125 32.41992188 C-367.27717818 30.17651689 -361.49568514 28.10510081 -355.50317383 26.41992188 C-353.05456413 25.67716044 -350.76869686 24.64057627 -348.43359375 23.6015625 C-343.56872913 21.62880244 -338.48823989 20.2498743 -333.44921875 18.796875 C-332.44181641 18.50586914 -332.44181641 18.50586914 -331.4140625 18.20898438 C-325.45303876 16.50506198 -319.4655303 14.90595166 -313.46972656 13.32928467 C-312.03902295 12.95229012 -310.60872364 12.5737597 -309.17871094 12.19415283 C-283.0981934 5.27092527 -257.19250271 -0.55415147 -230.44921875 -4.203125 C-229.72933777 -4.30175842 -229.00945679 -4.40039185 -228.26776123 -4.50201416 C-219.83383006 -5.65305164 -211.39283079 -6.73491702 -202.94311523 -7.76416016 C-199.2673011 -8.2259807 -195.5992797 -8.73344697 -191.9296875 -9.2421875 C-130.34696926 -17.45956206 -60.36306991 -15.294485 0 0 Z M-225.09008789 3.43756104 C-227.47428694 3.80069308 -229.85916085 4.15912494 -232.24414062 4.51708984 C-255.77645406 8.06735896 -279.33380712 11.93405589 -302.1640625 18.80859375 C-305.36274767 19.7708617 -308.57300323 20.66651724 -311.79467773 21.54760742 C-337.09905289 28.47738008 -362.17787858 36.26703528 -386.30078125 46.65625 C-389.67411252 48.10323492 -393.03364041 49.33861281 -396.53515625 50.4375 C-403.12743854 52.64020812 -408.62699677 54.62227688 -412.09375 60.97265625 C-413.99953616 65.21516573 -415.38288555 69.57613714 -416.65771484 74.04394531 C-417.42942808 76.72804107 -418.2890361 79.36374735 -419.1875 82.0078125 C-421.05884058 87.57002525 -422.76235012 93.17641502 -424.44921875 98.796875 C-424.76358887 99.8271582 -425.07795898 100.85744141 -425.40185547 101.91894531 C-431.49873828 121.99101246 -436.12754055 142.28491453 -440.44921875 162.796875 C-440.66562012 163.79702637 -440.88202148 164.79717773 -441.10498047 165.82763672 C-456.633433 237.7738731 -456.66458636 314.25258204 -444.79492188 386.66717529 C-444.4435588 388.83174307 -444.10302726 390.99776552 -443.765625 393.16455078 C-439.36928769 421.33990652 -433.47567523 449.18003027 -424.55712891 476.30224609 C-423.44754256 479.80216213 -422.41907717 483.3183391 -421.39982605 486.84529114 C-420.38494314 490.30959436 -419.31781043 493.75664877 -418.24227905 497.20254517 C-417.72003247 498.91096491 -417.2175205 500.62556207 -416.73648071 502.34603882 C-414.07111888 512.68613752 -414.07111888 512.68613752 -407.1184082 520.28369141 C-403.97430877 521.91403768 -400.72243152 523.09419933 -397.35308838 524.17004395 C-394.48399842 525.11466466 -391.75499444 526.35397157 -388.9921875 527.5703125 C-374.73705473 533.45468581 -360.37928306 538.88208103 -345.73291016 543.71289062 C-343.56842406 544.42741243 -341.40654637 545.14989203 -339.24755859 545.88085938 C-315.43050784 553.91726541 -290.96939654 559.37752503 -266.44921875 564.796875 C-265.16747269 565.08023712 -265.16747269 565.08023712 -263.85983276 565.36932373 C-253.20321437 567.70912088 -242.56323456 569.73267375 -231.76171875 571.296875 C-230.7141037 571.45029358 -230.7141037 571.45029358 -229.64532471 571.60681152 C-217.23877114 573.41169087 -204.7986561 574.8049765 -192.32421875 576.046875 C-191.49435455 576.12977783 -190.66449036 576.21268066 -189.80947876 576.2980957 C-170.58039491 578.19948211 -151.52103863 579.03687914 -132.19921875 579.046875 C-131.01958557 579.04754974 -129.83995239 579.04822449 -128.62457275 579.04891968 C-93.92790421 579.01769087 -59.7549532 576.54150297 -25.48974609 571.1171875 C-23.48637566 570.80270772 -21.48184757 570.49732224 -19.4765625 570.1953125 C-1.25872802 567.43781989 16.65652251 563.81866829 34.52069092 559.30865479 C36.60024204 558.78440608 38.6811811 558.26591878 40.76220703 557.74755859 C78.77499447 548.22584065 115.59285915 535.33733529 151.55078125 519.796875 C151.55078125 515.10493384 150.01039672 513.09578194 147.36328125 509.484375 C146.74308105 508.6171582 146.74308105 508.6171582 146.11035156 507.73242188 C144.92951805 506.08315087 143.7403751 504.43983851 142.55078125 502.796875 C141.63342124 501.4640186 140.71657291 500.13080948 139.80078125 498.796875 C137.56795638 495.81977518 135.2106977 493.3963388 132.55078125 490.796875 C131.1668942 489.28412397 129.79302515 487.76218491 128.42578125 486.234375 C123.66380277 480.922333 118.90121309 475.61601087 114.02636719 470.40722656 C112.49992503 468.74137407 111.03060544 467.03432481 109.55859375 465.3203125 C102.32274025 457.15508332 95.89292506 453.9380651 85.37255859 451.51220703 C79.32839169 449.97998614 73.41594129 447.9741897 67.48828125 446.046875 C66.81809967 445.83021179 66.14791809 445.61354858 65.45742798 445.39031982 C29.22702288 433.66480176 -3.46270941 420.11392456 -31.33984375 393.59765625 C-33.24048538 391.58044758 -33.24048538 391.58044758 -35.44921875 391.796875 C-35.77921875 390.806875 -36.10921875 389.816875 -36.44921875 388.796875 C-38.10712467 387.11637257 -38.10712467 387.11637257 -40.13671875 385.484375 C-44.20547094 382.09506492 -44.20547094 382.09506492 -45.66381836 380.31098938 C-47.71469274 377.89233428 -49.36571878 376.08471044 -52.4901886 375.25468445 C-54.88892754 375.07072769 -57.22021915 375.06945694 -59.625 375.140625 C-60.50842575 375.14437134 -61.3918515 375.14811768 -62.30204773 375.15197754 C-64.17230323 375.16539198 -66.04250386 375.19316974 -67.91235352 375.234375 C-70.71491255 375.29584832 -73.51519711 375.31625034 -76.31835938 375.328125 C-87.49568063 375.4247332 -98.38118685 376.30219737 -109.44921875 377.796875 C-111.76876737 378.06401003 -114.08905632 378.32482272 -116.41015625 378.578125 C-118.01310547 378.75794922 -118.01310547 378.75794922 -119.6484375 378.94140625 C-121.78877406 379.18097652 -123.92940827 379.41790057 -126.0703125 379.65234375 C-131.10413722 380.22117206 -136.0743665 380.87485648 -141.05078125 381.828125 C-180.2587816 389.1763305 -217.86222647 379.93535982 -254.80883789 367.38232422 C-277.54036128 359.66376778 -300.21611848 352.65350461 -324.44921875 353.796875 C-319.46107123 370.33258402 -307.09994347 384.48667529 -295.44921875 396.796875 C-294.64613281 397.6528125 -293.84304688 398.50875 -293.015625 399.390625 C-287.62247807 404.97728578 -282.07153198 409.72820198 -275.44921875 413.796875 C-274.81024658 414.19801514 -274.17127441 414.59915527 -273.51293945 415.01245117 C-267.77278063 418.43849125 -262.27673017 420.12532961 -255.76171875 421.484375 C-253.08967171 422.06870801 -250.42028428 422.65849556 -247.75634766 423.27880859 C-245.84780668 423.70737198 -243.92110659 424.05415038 -241.9921875 424.37890625 C-239.03419091 426.02829605 -238.91400648 426.5430207 -237.8984375 429.63671875 C-237.67849121 430.44093262 -237.45854492 431.24514648 -237.23193359 432.07373047 C-236.35199449 435.13512808 -235.20077444 437.98871891 -233.96875 440.92578125 C-233.52724609 441.97958984 -233.08574219 443.03339844 -232.63085938 444.11914062 C-232.17904297 445.18841797 -231.72722656 446.25769531 -231.26171875 447.359375 C-230.79830078 448.46345703 -230.33488281 449.56753906 -229.85742188 450.70507812 C-228.72428022 453.40359074 -227.58815595 456.10080458 -226.44921875 458.796875 C-233.38278866 456.16966957 -239.96580442 453.14919846 -246.51171875 449.671875 C-247.42002441 449.19177979 -248.32833008 448.71168457 -249.26416016 448.21704102 C-272.32686717 435.93105475 -294.96110767 421.94807681 -314.08984375 404.0078125 C-316.08218723 402.14081513 -318.11150621 400.36697914 -320.19921875 398.609375 C-330.5338329 389.59588678 -340.08062752 379.65301078 -348.44921875 368.796875 C-349.33502502 367.67766262 -350.22179148 366.55920972 -351.109375 365.44140625 C-356.77562834 358.23715543 -361.16397459 352.15727021 -363.07421875 343.046875 C-363.9045025 338.79677069 -363.9045025 338.79677069 -365.44921875 334.796875 C-330.79810167 322.94085212 -294.98077786 316.70521487 -258.44921875 314.796875 C-258.26129761 313.62838013 -258.26129761 313.62838013 -258.06958008 312.4362793 C-252.22972284 276.47282288 -252.22972284 276.47282288 -246.11865234 260.58520508 C-245.3137263 258.43491943 -244.6788306 256.26116774 -244.07421875 254.046875 C-240.87750005 243.22721172 -235.80630496 232.99002914 -231.21875 222.703125 C-230.92589111 222.04634766 -230.63303223 221.38957031 -230.33129883 220.71289062 C-229.44921875 218.796875 -229.44921875 218.796875 -228.33862305 216.80273438 C-227.17898982 214.55313193 -227.17898982 214.55313193 -227.44921875 210.796875 C-228.47970337 210.60895386 -228.47970337 210.60895386 -229.53100586 210.41723633 C-243.60206832 207.84560825 -257.65394223 205.210332 -271.66381836 202.3215332 C-272.64487549 202.12132568 -273.62593262 201.92111816 -274.63671875 201.71484375 C-275.92642578 201.44837036 -275.92642578 201.44837036 -277.2421875 201.17651367 C-279.56874104 200.71211321 -279.56874104 200.71211321 -282.44921875 200.796875 C-282.58199219 199.97703125 -282.71476563 199.1571875 -282.8515625 198.3125 C-283.11646484 196.69601562 -283.11646484 196.69601562 -283.38671875 195.046875 C-283.56074219 193.97953125 -283.73476563 192.9121875 -283.9140625 191.8125 C-284.33674932 189.43064432 -284.84681891 187.13586339 -285.44921875 184.796875 C-284.59154907 184.54707886 -284.59154907 184.54707886 -283.71655273 184.29223633 C-276.59053371 182.18860664 -269.5523618 179.85601815 -262.51171875 177.484375 C-247.89891837 172.59629385 -233.29780295 167.79848396 -218.44921875 163.671875 C-217.53140625 163.41100098 -216.61359375 163.15012695 -215.66796875 162.88134766 C-211.16102987 161.64066452 -206.79815452 160.64573385 -202.1484375 160.12890625 C-193.74213697 159.3606839 -193.74213697 159.3606839 -186.77880859 155.09423828 C-181.73881586 148.10769652 -178.9150567 140.37760997 -178.44921875 131.796875 C-181.0112636 127.84705586 -185.09387289 126.25800749 -189.44921875 124.796875 C-192.86363813 124.32748911 -192.86363813 124.32748911 -196.40234375 124.36328125 C-197.05126587 124.35631729 -197.70018799 124.34935333 -198.36877441 124.34217834 C-200.47943412 124.32825285 -202.58860759 124.34086296 -204.69921875 124.359375 C-205.79417664 124.36393707 -205.79417664 124.36393707 -206.91125488 124.36859131 C-221.34571392 124.45700404 -235.26742502 126.07298902 -249.44921875 128.796875 C-251.2278833 129.13428711 -251.2278833 129.13428711 -253.04248047 129.47851562 C-279.41791202 133.47989341 -279.41791202 133.47989341 -304.44921875 141.796875 C-300.91759485 137.98380528 -296.55542505 135.78121276 -292.07421875 133.234375 C-291.15479492 132.70714844 -290.23537109 132.17992187 -289.28808594 131.63671875 C-281.70061416 127.35251344 -273.92815522 123.57360446 -265.93994141 120.09545898 C-264.68383057 119.53000366 -264.68383057 119.53000366 -263.40234375 118.953125 C-262.66145508 118.63150391 -261.92056641 118.30988281 -261.15722656 117.97851562 C-259.28920112 116.91092728 -259.28920112 116.91092728 -258.60498047 114.81274414 C-258.22972863 112.60345793 -258.22972863 112.60345793 -260.00390625 110.38671875 C-260.76960937 109.51144531 -261.5353125 108.63617188 -262.32421875 107.734375 C-263.55591797 106.29964844 -263.55591797 106.29964844 -264.8125 104.8359375 C-265.4614624 104.0919873 -265.4614624 104.0919873 -266.12353516 103.33300781 C-268.30745714 100.80239324 -270.40361429 98.20344949 -272.51171875 95.609375 C-273.26582031 94.68769531 -274.01992188 93.76601563 -274.796875 92.81640625 C-275.34214844 92.14996094 -275.88742187 91.48351562 -276.44921875 90.796875 C-265.09201761 93.53826838 -253.57229032 96.92011163 -245.63671875 105.984375 C-243.87011142 107.86353973 -243.87011142 107.86353973 -241.44921875 108.796875 C-236.53817287 108.2826843 -232.0897914 106.92515266 -227.41162109 105.39697266 C-224.62756577 104.5456156 -221.81688528 104.0328573 -218.94921875 103.546875 C-218.07265625 103.39734375 -217.19609375 103.2478125 -216.29296875 103.09375 C-215.68453125 102.99578125 -215.07609375 102.8978125 -214.44921875 102.796875 C-215.42812475 88.43958699 -225.0394336 73.85547441 -232.44921875 61.796875 C-227.50087635 63.16556545 -223.67536195 65.41606118 -219.57421875 68.421875 C-218.95780518 68.87208008 -218.3413916 69.32228516 -217.70629883 69.78613281 C-207.46694538 77.39320282 -198.26901818 87.30930908 -194.13671875 99.64453125 C-192.74243281 103.11973046 -192.74243281 103.11973046 -189.15625 103.8828125 C-187.87105469 103.97820312 -186.58585937 104.07359375 -185.26171875 104.171875 C-184.25612915 104.26154541 -184.25612915 104.26154541 -183.23022461 104.35302734 C-181.30506426 104.52327169 -179.37710146 104.66088327 -177.44921875 104.796875 C-175.80180647 104.99233069 -174.15540085 105.19719903 -172.51171875 105.421875 C-170.99578125 105.6075 -170.99578125 105.6075 -169.44921875 105.796875 C-164.10774789 88.659656 -164.39017844 68.97489217 -171.9453125 52.54296875 C-173.36095388 49.89173015 -174.85109394 47.3410897 -176.44921875 44.796875 C-177.45058509 43.1310289 -178.45096176 41.46458623 -179.44921875 39.796875 C-169.9665586 42.41563289 -162.41380704 50.46394207 -157.44921875 58.796875 C-149.93620068 72.93125625 -145.72281589 86.40285744 -146.01171875 102.546875 C-146.02493164 103.8558374 -146.03814453 105.1647998 -146.05175781 106.51342773 C-146.30937873 120.4120763 -148.14840675 133.16087574 -152.77734375 146.29296875 C-153.72244536 148.89600664 -153.72244536 148.89600664 -152.44921875 151.796875 C-151.3725293 151.60053467 -150.29583984 151.40419434 -149.18652344 151.2019043 C-109.80388321 144.02995662 -109.80388321 144.02995662 -93.44921875 141.796875 C-94.07441406 142.07402344 -94.69960938 142.35117187 -95.34375 142.63671875 C-97.81889998 144.0005769 -98.66596418 145.60134894 -100.12890625 147.95703125 C-104.74091525 154.38382486 -112.32080309 162.23266717 -119.44921875 165.796875 C-119.44921875 166.456875 -119.44921875 167.116875 -119.44921875 167.796875 C-120.29613281 168.21259766 -120.29613281 168.21259766 -121.16015625 168.63671875 C-123.49938827 169.82230222 -125.78635103 171.07770997 -128.07421875 172.359375 C-132.75171377 174.97783982 -135.0947101 175.90524219 -140.55078125 175.67578125 C-142.36835937 175.60327148 -142.36835937 175.60327148 -144.22265625 175.52929688 C-145.49367188 175.47322266 -146.7646875 175.41714844 -148.07421875 175.359375 C-149.35296875 175.30716797 -150.63171875 175.25496094 -151.94921875 175.20117188 C-155.11611575 175.0711873 -158.28272162 174.93621098 -161.44921875 174.796875 C-166.09211097 189.97003822 -169.65624053 205.17740239 -172.44921875 220.796875 C-172.6505542 221.89854004 -172.6505542 221.89854004 -172.85595703 223.02246094 C-175.53702083 238.11334323 -177.71874624 256.67083425 -168.9765625 270.05078125 C-161.89006951 279.14762686 -151.68210804 281.82921076 -140.71149445 283.52643967 C-133.06005493 284.44110254 -125.28722481 284.10904564 -117.59765625 284.01953125 C-115.60674845 284.00881636 -113.61583104 283.99977177 -111.62490845 283.99229431 C-106.41500036 283.96968413 -101.20536849 283.93074306 -95.99560547 283.8862915 C-87.683237 283.81574196 -79.37089567 283.76024124 -71.05830765 283.72393608 C-68.19555848 283.70759026 -65.33317513 283.6780148 -62.47055054 283.64723206 C-40.88976124 283.48687557 -19.45355478 285.74027558 1.55078125 290.796875 C8.41475219 269.38456723 -1.09182231 244.87190081 -10.82421875 225.671875 C-12.01418885 223.36958374 -13.22614988 221.08192563 -14.44921875 218.796875 C-14.77921875 218.136875 -15.10921875 217.476875 -15.44921875 216.796875 C9.17174406 233.35437463 39.85965586 256.68500731 46.1328125 287.671875 C46.42578125 290.171875 46.42578125 290.171875 46.55078125 293.796875 C45.8441333 293.58877197 45.13748535 293.38066895 44.40942383 293.16625977 C40.86606595 292.70839825 39.0756776 293.47325679 35.8125 294.88671875 C34.21245117 295.56831055 34.21245117 295.56831055 32.58007812 296.26367188 C31.47728516 296.74900391 30.37449219 297.23433594 29.23828125 297.734375 C28.11615234 298.21583984 26.99402344 298.69730469 25.83789062 299.19335938 C23.07022524 300.38286662 20.30841218 301.58432892 17.55078125 302.796875 C19.45423 305.01690041 19.45423 305.01690041 22.4375 305.66015625 C32.0649125 309.17530937 39.23497397 324.8231134 43.51611328 333.82714844 C50.06750681 348.56865927 53.86912268 364.40113139 57.890625 379.97265625 C61.79146023 394.91075036 66.17041311 406.26711089 79.92578125 414.5703125 C81.46217285 415.44681186 83.00404101 416.31376958 84.55078125 417.171875 C85.37239746 417.63811279 86.19401367 418.10435059 87.04052734 418.5847168 C89.53827041 419.99917392 92.04300991 421.40028686 94.55078125 422.796875 C96.04298292 423.62888084 97.53517109 424.46091088 99.02734375 425.29296875 C99.72335693 425.68105713 100.41937012 426.06914551 101.13647461 426.46899414 C118.93538091 436.42214766 129.48548135 448.56293653 141.55078125 464.796875 C142.11941895 465.56193359 142.68805664 466.32699219 143.27392578 467.11523438 C150.15881937 476.42030796 156.70465816 485.80018113 162.55078125 495.796875 C164.66728091 492.62212552 165.58096439 489.94623988 166.72265625 486.3125 C166.92547211 485.66972107 167.12828796 485.02694214 167.33724976 484.36468506 C167.99823132 482.26070491 168.65060214 480.15421709 169.30078125 478.046875 C169.52554138 477.32048828 169.75030151 476.59410156 169.98187256 475.84570312 C181.46044131 438.6662991 189.07409547 400.74100468 193.30078125 362.06378174 C193.54133989 359.88248577 193.79294276 357.7027232 194.046875 355.52294922 C196.53945552 333.72587164 196.83434612 311.91463715 196.86040878 290.0003624 C196.86322359 287.84110464 196.86874206 285.68186538 196.87442017 283.52261353 C196.92423876 257.30539618 195.78212641 231.24009723 192.23828125 205.234375 C192.12929504 204.41835815 192.02030884 203.60234131 191.90802002 202.76159668 C191.24947406 197.8376117 190.56814066 192.91730291 189.86529541 187.99945068 C189.57638975 185.97621405 189.29258507 183.95225074 189.00927734 181.92822266 C185.69063203 158.7995239 179.64294679 136.32100986 173.55078125 113.796875 C173.21256348 112.54374512 172.8743457 111.29061523 172.52587891 109.99951172 C166.37974615 80.27800929 166.37974615 80.27800929 152.6171875 55.59375 C151.79089844 55.24828125 150.96460938 54.9028125 150.11328125 54.546875 C149.12199219 54.12535156 148.13070312 53.70382812 147.109375 53.26953125 C145.93503906 52.78355469 144.76070312 52.29757812 143.55078125 51.796875 C142.1450714 51.19317733 140.74017042 50.58759391 139.3359375 49.98046875 C110.80887215 37.71184642 81.54859489 27.80475681 51.55078125 19.796875 C50.11235288 19.40498835 48.67396019 19.01297067 47.2355957 18.62084961 C36.142309 15.62038616 25.01323274 13.07532764 13.73828125 10.859375 C12.88362274 10.69078979 12.02896423 10.52220459 11.14840698 10.34851074 C4.95521457 9.13212939 -1.24426182 7.95168068 -7.44921875 6.796875 C-8.24622192 6.64845154 -9.0432251 6.50002808 -9.86437988 6.34710693 C-80.52997995 -6.70950289 -154.09329663 -7.38439852 -225.09008789 3.43756104 Z " fill="#FBD907" transform="translate(639.44921875,223.203125)"/>
<path d="M0 0 C2.77751276 0.6233362 5.31666383 1.01153766 8.1328125 1.28125 C11.86717397 1.65488259 14.9917033 2.56855907 18.55078125 3.796875 C22.6186838 4.76288603 26.71184184 5.61235792 30.80078125 6.484375 C48.57888131 10.36079374 66.23794319 14.7607596 83.43359375 20.74609375 C86.39042624 21.74282049 89.34357421 22.57726251 92.36328125 23.359375 C96.74674846 24.51189666 100.84918913 26.02694143 105.03125 27.765625 C107.62058457 28.82544566 110.23002934 29.78930051 112.86328125 30.734375 C125.49632536 35.28938809 138.0801041 40.11840053 150.25537109 45.80078125 C152.50794124 46.829655 152.50794124 46.829655 154.77807617 47.4765625 C158.41449176 48.69960226 160.86994042 49.75273651 163.00756836 53.03100586 C164.23681749 55.89610796 165.2333797 58.76254322 166.17578125 61.734375 C166.54421143 62.80469971 166.9126416 63.87502441 167.29223633 64.9777832 C168.04572285 67.18124682 168.78410361 69.38993351 169.50732422 71.60351562 C170.45992687 74.51882744 171.45042416 77.41685842 172.4609375 80.3125 C179.12210245 99.56047244 184.2998289 119.14586014 188.89550781 138.97851562 C189.45484799 141.38426192 190.02714495 143.78627254 190.60546875 146.1875 C196.07354088 169.31630533 200.09866192 193.16351799 202.55078125 216.796875 C202.75380859 218.64635742 202.75380859 218.64635742 202.9609375 220.53320312 C205.3250003 242.49353004 205.8454124 264.43709411 205.86130142 286.50630569 C205.86324767 288.5737033 205.86835324 290.6410748 205.87387085 292.70846558 C205.90899369 310.49517078 205.2556016 328.09063398 203.55078125 345.796875 C203.46819061 346.66178558 203.38559998 347.52669617 203.30050659 348.41781616 C202.85697474 352.98155663 202.37390579 357.53961487 201.85571289 362.09545898 C201.61005665 364.26282489 201.37402677 366.43110307 201.13867188 368.59960938 C199.27066654 385.49568943 196.45870523 402.17255706 192.92578125 418.796875 C192.75670258 419.59804749 192.5876239 420.39921997 192.41342163 421.22467041 C189.82541688 433.44137425 186.97344657 445.57778352 183.86328125 457.671875 C183.68327576 458.37505859 183.50327026 459.07824219 183.31781006 459.80273438 C179.7897979 473.51573596 175.74896489 487.04566308 170.73828125 500.296875 C170.27131836 501.54791016 170.27131836 501.54791016 169.79492188 502.82421875 C169.05066928 504.81652569 168.3013353 506.80693342 167.55078125 508.796875 C166.56078125 508.796875 165.57078125 508.796875 164.55078125 508.796875 C163.48828125 506.421875 163.48828125 506.421875 162.55078125 503.796875 C162.88078125 503.136875 163.21078125 502.476875 163.55078125 501.796875 C163.37361572 500.88228516 163.1964502 499.96769531 163.01391602 499.02539062 C162.49699815 495.42195267 162.95211174 493.55041263 164.140625 490.140625 C164.50873291 489.05233398 164.87684082 487.96404297 165.25610352 486.84277344 C165.66272217 485.67262695 166.06934082 484.50248047 166.48828125 483.296875 C167.33498306 480.75164204 168.17743425 478.20552893 169.01171875 475.65625 C169.22617142 475.00263489 169.44062408 474.34901978 169.66157532 473.67559814 C181.43051711 437.56516355 188.18160885 399.7571798 192.30078125 362.06378174 C192.54133989 359.88248577 192.79294276 357.7027232 193.046875 355.52294922 C195.53945552 333.72587164 195.83434612 311.91463715 195.86040878 290.0003624 C195.86322359 287.84110464 195.86874206 285.68186538 195.87442017 283.52261353 C195.92423876 257.30539618 194.78212641 231.24009723 191.23828125 205.234375 C191.12929504 204.41835815 191.02030884 203.60234131 190.90802002 202.76159668 C190.24947406 197.8376117 189.56814066 192.91730291 188.86529541 187.99945068 C188.57638975 185.97621405 188.29258507 183.95225074 188.00927734 181.92822266 C184.69063203 158.7995239 178.64294679 136.32100986 172.55078125 113.796875 C172.21256348 112.54374512 171.8743457 111.29061523 171.52587891 109.99951172 C167.22797343 94.26715679 161.91813495 78.89588837 156.47119141 63.53222656 C155.55078125 60.796875 155.55078125 60.796875 155.0715332 58.48876953 C154.89968506 57.93044434 154.72783691 57.37211914 154.55078125 56.796875 C152.00655764 55.71701483 152.00655764 55.71701483 148.55078125 54.796875 C146.84351951 54.11619068 145.14504488 53.41328249 143.453125 52.6953125 C142.49817139 52.29175537 141.54321777 51.88819824 140.55932617 51.47241211 C139.54588135 51.04323486 138.53243652 50.61405762 137.48828125 50.171875 C109.44748024 38.42089897 80.93236927 28.64025609 51.55078125 20.796875 C50.11235288 20.40498835 48.67396019 20.01297067 47.2355957 19.62084961 C36.142309 16.62038616 25.01323274 14.07532764 13.73828125 11.859375 C12.88362274 11.69078979 12.02896423 11.52220459 11.14840698 11.34851074 C4.95521457 10.13212939 -1.24426182 8.95168068 -7.44921875 7.796875 C-8.24622192 7.64845154 -9.0432251 7.50002808 -9.86437988 7.34710693 C-80.52997995 -5.70950289 -154.09329663 -6.38439852 -225.09008789 4.43756104 C-227.47428694 4.80069308 -229.85916085 5.15912494 -232.24414062 5.51708984 C-255.77645406 9.06735896 -279.33380712 12.93405589 -302.1640625 19.80859375 C-305.36274767 20.7708617 -308.57300323 21.66651724 -311.79467773 22.54760742 C-342.94177682 31.07744917 -373.25748197 41.4574998 -402.70556641 54.76611328 C-407.23984048 56.796875 -407.23984048 56.796875 -409.44921875 56.796875 C-409.6208252 57.39693359 -409.79243164 57.99699219 -409.96923828 58.61523438 C-411.82171443 64.95607264 -413.99941797 71.11630706 -416.32421875 77.296875 C-419.38508683 85.57307184 -422.00070116 93.84691475 -424.25 102.375 C-425.02741986 105.30919545 -425.87565986 108.20402292 -426.8046875 111.09375 C-432.02660079 127.40690779 -435.49764364 144.12743219 -439.03973389 160.86846924 C-439.39343398 162.53416523 -439.75304929 164.19860313 -440.11376953 165.86279297 C-455.63590857 237.79697536 -455.66238763 314.26599604 -443.79492188 386.66717529 C-443.4435588 388.83174307 -443.10302726 390.99776552 -442.765625 393.16455078 C-438.54083101 420.24051542 -433.20877894 447.34471945 -424.4609375 473.3671875 C-423.0042305 477.76263624 -421.8823059 482.15651648 -420.85971069 486.66607666 C-416.75710672 506.73386515 -416.75710672 506.73386515 -404.25906372 521.88839722 C-396.90641369 525.95597085 -388.864214 528.3259269 -380.79833984 530.54492188 C-376.57670415 531.71991117 -372.51664857 533.18656616 -368.4375 534.78125 C-367.15619023 535.28016618 -365.87485908 535.77902745 -364.59350586 536.27783203 C-363.96958954 536.52084045 -363.34567322 536.76384888 -362.70285034 537.01422119 C-349.83832135 541.94570408 -336.68972342 546.01668631 -323.44921875 549.796875 C-322.64935547 550.03148437 -321.84949219 550.26609375 -321.02539062 550.5078125 C-277.25492972 563.33273767 -232.74597845 570.88780326 -187.44921875 575.484375 C-186.27673584 575.60369385 -185.10425293 575.7230127 -183.89624023 575.84594727 C-166.63763121 577.53648174 -149.53290013 578.03790768 -132.19921875 578.046875 C-131.01958557 578.04754974 -129.83995239 578.04822449 -128.62457275 578.04891968 C-93.92790421 578.01769087 -59.7549532 575.54150297 -25.48974609 570.1171875 C-23.48637566 569.80270772 -21.48184757 569.49732224 -19.4765625 569.1953125 C-1.25872802 566.43781989 16.65652251 562.81866829 34.52069092 558.30865479 C36.60024204 557.78440608 38.6811811 557.26591878 40.76220703 556.74755859 C75.09261485 548.14822973 108.90727975 537.2453937 141.26049805 522.83691406 C142.25590607 522.40443108 142.25590607 522.40443108 143.27142334 521.96321106 C145.04005938 521.19404438 146.8005516 520.40622579 148.56030273 519.61694336 C151.55078125 518.796875 151.55078125 518.796875 154.19946289 519.40063477 C156.74821168 520.91411149 158.57287555 522.599202 160.55078125 524.796875 C151.47514315 529.4776141 142.36303955 533.71865235 132.86328125 537.484375 C132.23604156 537.73399994 131.60880188 537.98362488 130.96255493 538.24081421 C107.46043046 547.56662412 83.49680361 555.70417401 59.04101562 562.14013672 C56.8784266 562.71046657 54.72148037 563.29658193 52.56640625 563.89453125 C48.90363961 564.89975721 45.23205493 565.86235929 41.55078125 566.796875 C40.66519531 567.0222998 39.77960938 567.24772461 38.8671875 567.47998047 C24.6881191 571.05968286 10.52048124 574.03086324 -3.91259766 576.37646484 C-6.8382978 576.86135952 -9.75309887 577.39468941 -12.66894531 577.93505859 C-32.43718558 581.56986406 -52.40851814 584.27071628 -72.44921875 585.796875 C-73.56635254 585.88710938 -74.68348633 585.97734375 -75.83447266 586.0703125 C-111.29430097 588.86666502 -147.00942455 588.87405397 -182.44921875 585.796875 C-184.24721924 585.64412109 -184.24721924 585.64412109 -186.08154297 585.48828125 C-255.59715619 579.40179059 -325.2387003 563.65415687 -389.63671875 536.5859375 C-393.86708027 534.80790804 -398.06553335 533.23651105 -402.44921875 531.8828125 C-414.4539464 527.91228979 -414.4539464 527.91228979 -418.08349609 522.24511719 C-420.98021546 516.29844406 -422.89662949 510.13792402 -424.6105957 503.76416016 C-425.42990355 500.86521763 -426.40157827 498.08470462 -427.4609375 495.265625 C-429.55295505 489.64766735 -431.18822909 483.95355627 -432.76171875 478.171875 C-433.37061688 475.9555981 -433.9800055 473.7394559 -434.58984375 471.5234375 C-434.89728516 470.40356445 -435.20472656 469.28369141 -435.52148438 468.12988281 C-436.40482737 464.95635689 -437.31863227 461.79369053 -438.24609375 458.6328125 C-448.78304525 422.52313278 -455.30759638 384.29903773 -458.51171875 346.796875 C-458.58970703 345.96027344 -458.66769531 345.12367188 -458.74804688 344.26171875 C-460.36402213 325.6980361 -460.65539506 307.04517252 -460.63671875 288.421875 C-460.63644684 287.38572052 -460.63617493 286.34956604 -460.63589478 285.28201294 C-460.61406755 267.04056627 -459.96225961 248.97671473 -458.44921875 230.796875 C-458.29646484 228.86086426 -458.29646484 228.86086426 -458.140625 226.88574219 C-455.94062665 199.48761455 -451.38552569 172.61727572 -445.44921875 145.796875 C-445.10721436 144.22776367 -445.10721436 144.22776367 -444.75830078 142.62695312 C-439.99540855 120.85559947 -433.82059529 99.69187985 -426.82421875 78.546875 C-426.59433258 77.84899872 -426.36444641 77.15112244 -426.12759399 76.43209839 C-424.61948695 71.86788631 -423.04945325 67.32961967 -421.44921875 62.796875 C-421.06628662 61.64445312 -420.68335449 60.49203125 -420.28881836 59.3046875 C-417.14473087 50.63025103 -417.14473087 50.63025103 -412.59375 48.015625 C-411.16713066 47.40068041 -409.72185092 46.82735935 -408.26171875 46.296875 C-407.55724609 46.00296875 -406.85277344 45.7090625 -406.12695312 45.40625 C-403.91566521 44.49371852 -401.68606714 43.64458563 -399.44921875 42.796875 C-397.86860437 42.16572574 -396.28921933 41.53149096 -394.7109375 40.89453125 C-388.63997873 38.46567953 -382.5474722 36.09373408 -376.44921875 33.734375 C-375.33804688 33.30060547 -374.226875 32.86683594 -373.08203125 32.41992188 C-367.27717818 30.17651689 -361.49568514 28.10510081 -355.50317383 26.41992188 C-353.05456413 25.67716044 -350.76869686 24.64057627 -348.43359375 23.6015625 C-343.56872913 21.62880244 -338.48823989 20.2498743 -333.44921875 18.796875 C-332.44181641 18.50586914 -332.44181641 18.50586914 -331.4140625 18.20898438 C-325.45303876 16.50506198 -319.4655303 14.90595166 -313.46972656 13.32928467 C-312.03902295 12.95229012 -310.60872364 12.5737597 -309.17871094 12.19415283 C-283.0981934 5.27092527 -257.19250271 -0.55415147 -230.44921875 -4.203125 C-229.72933777 -4.30175842 -229.00945679 -4.40039185 -228.26776123 -4.50201416 C-219.83383006 -5.65305164 -211.39283079 -6.73491702 -202.94311523 -7.76416016 C-199.2673011 -8.2259807 -195.5992797 -8.73344697 -191.9296875 -9.2421875 C-130.34696926 -17.45956206 -60.36306991 -15.294485 0 0 Z " fill="#F8DF34" transform="translate(639.44921875,223.203125)"/>
<path d="M0 0 C5.54302697 4.06096001 8.3645231 7.69635947 10.6875 14.125 C11.00581787 14.96409912 11.32413574 15.80319824 11.65209961 16.66772461 C12.80458012 19.76644884 13.90658604 22.87993136 15 26 C15.22683472 26.64459167 15.45366943 27.28918335 15.68737793 27.95330811 C22.75663266 48.07601007 29.08799438 68.23186253 34 89 C34.38961914 90.62639404 34.38961914 90.62639404 34.78710938 92.28564453 C36.59193757 99.84252702 38.31534801 107.41551694 40 115 C40.22429688 115.99563965 40.44859375 116.9912793 40.6796875 118.01708984 C46.45609644 143.79431475 49.54152733 169.78620449 51.67529297 196.07958984 C51.97063269 199.64542839 52.29534216 203.20710905 52.62890625 206.76953125 C60.03762035 290.38305419 47.25410788 376.26289396 15.07519531 474.81103516 C13.95059766 478.14652437 12.93144071 481.49790557 11.99755859 484.89135742 C10.40119833 489.26075499 9.08666455 492.27706789 5.13208008 494.90795898 C4.00181396 495.43204346 2.87154785 495.95612793 1.70703125 496.49609375 C1.08901138 496.78672699 0.47099152 497.07736023 -0.16575623 497.37680054 C-2.10046047 498.27573427 -4.04657432 499.14259162 -6 500 C-7.75546143 500.77380005 -7.75546143 500.77380005 -9.54638672 501.56323242 C-13.20120446 503.12802573 -16.87473909 504.64010461 -20.5625 506.125 C-21.23486694 506.3970224 -21.90723389 506.6690448 -22.59997559 506.9493103 C-48.87037965 517.54557995 -75.60646887 526.76853791 -103 534 C-104.19705566 534.32274902 -105.39411133 534.64549805 -106.62744141 534.97802734 C-136.11857041 542.89140963 -166.1113087 548.76565342 -196.375 552.8125 C-197.0586261 552.90582611 -197.7422522 552.99915222 -198.44659424 553.0953064 C-203.95400467 553.83585679 -209.47151013 554.43993505 -215 555 C-216.84833435 555.18792114 -216.84833435 555.18792114 -218.73400879 555.37963867 C-240.29512062 557.53143102 -261.68966438 558.48743807 -283.35449219 558.39111328 C-287.22568213 558.37402283 -291.09625254 558.38422573 -294.96742153 558.40143585 C-323.43334766 558.50835773 -351.72529393 556.61767645 -379.9375 552.75 C-380.69299133 552.64906036 -381.44848267 552.54812073 -382.22686768 552.44412231 C-394.50767158 550.79401661 -406.7001803 548.73822879 -418.875 546.4375 C-419.62756073 546.29574341 -420.38012146 546.15398682 -421.15548706 546.00793457 C-430.28115682 544.2736387 -439.29612572 542.25164562 -448.29345703 539.9440918 C-451.58418452 539.10591216 -454.87969397 538.31037758 -458.1875 537.54296875 C-494.98693646 528.98850891 -530.23841462 516.67483031 -565 502 C-566.02609375 501.56961426 -567.0521875 501.13922852 -568.109375 500.69580078 C-570.7039851 499.60231955 -573.29143818 498.49429347 -575.875 497.375 C-576.59413574 497.06860596 -577.31327148 496.76221191 -578.05419922 496.4465332 C-581.43623903 494.94468257 -582.89340148 494.15989777 -585 491 C-585 490.01 -585 489.02 -585 488 C-579.44874998 489.7130095 -574.19558336 492.00159219 -568.875 494.3125 C-566.97796902 495.1291489 -565.08083443 495.94555715 -563.18359375 496.76171875 C-560.34000493 497.98807663 -557.49858137 499.21874754 -554.66015625 500.45703125 C-546.13853358 504.11264844 -537.38335747 507.0743016 -528.62011719 510.08837891 C-526.08553661 510.97023912 -523.56133044 511.87655475 -521.0390625 512.79296875 C-509.79464806 516.85776701 -498.46472718 520.23166332 -486.89404297 523.23974609 C-484.84325146 523.7784811 -482.79567855 524.32953709 -480.75048828 524.88916016 C-469.73467326 527.89101113 -458.63411067 530.47644768 -447.5 533 C-446.5244516 533.22132599 -445.5489032 533.44265198 -444.54379272 533.67068481 C-422.11929767 538.74303161 -399.86243312 542.53626155 -377 545 C-375.85660156 545.12761719 -374.71320313 545.25523437 -373.53515625 545.38671875 C-357.31253956 547.18133462 -341.11183688 548.38071121 -324.8125 549.1875 C-323.96993652 549.23029083 -323.12737305 549.27308167 -322.25927734 549.31716919 C-303.37237845 550.25851402 -284.57265049 550.18998175 -265.6875 549.25 C-264.81692963 549.20709839 -263.94635925 549.16419678 -263.04940796 549.11999512 C-178.98700755 544.87184048 -95.75292021 526.56745505 -15.93188477 491.9543457 C-15.14869873 491.60976318 -14.3655127 491.26518066 -13.55859375 490.91015625 C-12.80690918 490.57387207 -12.05522461 490.23758789 -11.28076172 489.89111328 C-9 489 -9 489 -6.52001953 488.43310547 C-4.06045041 487.86246164 -2.15379685 487.3241694 0 486 C1.27076465 483.66187452 1.7957463 481.50704311 2.36230469 478.90820312 C3.04639163 475.78843143 4.04317352 472.94279182 5.1640625 469.953125 C20.48289764 428.25653622 30.78559661 385.78227348 38 342 C38.13440491 341.19547394 38.26880981 340.39094788 38.4072876 339.56204224 C40.036526 329.78408678 41.44602204 320.08593357 42.125 310.1875 C42.27117325 308.18082336 42.4195397 306.17430504 42.5703125 304.16796875 C42.65949951 302.88829224 42.65949951 302.88829224 42.75048828 301.58276367 C43 299 43 299 43.48123169 296.30274963 C45.25987218 284.97899658 45.16422833 273.26124837 45.203125 261.828125 C45.21010799 260.42419405 45.21714891 259.0202634 45.22424316 257.61633301 C45.24348936 253.16088456 45.24841859 248.70548551 45.25 244.25 C45.25058914 243.4906868 45.25117828 242.7313736 45.25178528 241.9490509 C45.2644478 218.8213306 44.7508844 195.98529919 42 173 C41.78838074 171.02635646 41.5767822 169.0527089 41.3684082 167.07872009 C35.48416438 111.80855613 22.57415017 55.74363259 0.9609375 4.45703125 C0 2 0 2 0 0 Z " fill="#02430A" transform="translate(807,268)"/>
<path d="M0 0 C0.86212097 0.16218018 1.72424194 0.32436035 2.61248779 0.49145508 C23.64756001 4.46842524 44.43470219 9.01074409 65 15 C66.70439061 15.48450331 68.40881633 15.96888317 70.11328125 16.453125 C94.74592606 23.55662868 119.91157223 31.75317804 143 43 C139.39660721 44.20113093 138.52703676 43.71284148 135.046875 42.41015625 C134.0470459 42.04188721 133.0472168 41.67361816 132.01708984 41.29418945 C130.9389502 40.88773193 129.86081055 40.48127441 128.75 40.0625 C126.46644106 39.22315469 124.18258028 38.38463017 121.8984375 37.546875 C120.16352051 36.90588867 120.16352051 36.90588867 118.39355469 36.25195312 C102.95013533 30.55455352 87.56953214 25.64373214 71.59423828 21.66601562 C68.60135151 20.89765546 65.64230824 20.03999249 62.6796875 19.16357422 C20.26934349 6.75693604 -25.00408213 0.84543332 -69 -2 C-70.20237305 -2.0920874 -71.40474609 -2.1841748 -72.64355469 -2.27905273 C-85.66942055 -3.19521287 -98.69805846 -3.1861015 -111.75146484 -3.18530273 C-115.70030781 -3.18747269 -119.64886302 -3.20564137 -123.59765625 -3.22460938 C-141.14383395 -3.26372824 -158.51858379 -2.49573145 -176 -1 C-176.83926025 -0.92901093 -177.67852051 -0.85802185 -178.54321289 -0.78488159 C-183.1624704 -0.38427131 -187.76859236 0.09403035 -192.375 0.625 C-193.06814301 0.7048111 -193.76128601 0.78462219 -194.47543335 0.86685181 C-255.31053305 7.9815009 -314.80482619 22.56218715 -371.75 45.125 C-372.96333008 45.60372559 -374.17666016 46.08245117 -375.42675781 46.57568359 C-378.97324439 48.00333184 -382.4891107 49.48705357 -386 51 C-386.63403748 51.26279755 -387.26807495 51.52559509 -387.92132568 51.7963562 C-396.79592165 55.19831851 -396.79592165 55.19831851 -402.5390625 62.26953125 C-403.1958746 64.51708558 -403.1958746 64.51708558 -403.625 66.8125 C-404.00937857 68.31994384 -404.39743122 69.82645537 -404.7890625 71.33203125 C-404.97243164 72.09378662 -405.15580078 72.85554199 -405.34472656 73.64038086 C-406.04588238 76.165221 -406.95771821 78.5096701 -407.9609375 80.9296875 C-410.04478934 85.96493211 -411.56581504 91.06038859 -413 96.3125 C-413.47767692 98.03817348 -413.95686695 99.76342877 -414.4375 101.48828125 C-414.80959595 102.82681152 -414.80959595 102.82681152 -415.18920898 104.19238281 C-416.04282972 107.14831128 -416.97442158 110.07300122 -417.91015625 113.00390625 C-420.52210573 121.44093735 -422.47556211 130.01872273 -424.4375 138.625 C-424.63387054 139.48204529 -424.83024109 140.33909058 -425.03256226 141.22210693 C-436.0599048 189.46064097 -441.59121857 237.54647742 -441.3225708 286.98730469 C-441.30907481 290.35459615 -441.3144302 293.72175715 -441.31942272 297.08906364 C-441.34850771 322.87370191 -440.25963226 348.32453199 -436.5625 373.875 C-436.33575623 375.47900225 -436.10961126 377.08308925 -435.8840332 378.68725586 C-435.55196991 381.04455956 -435.21886271 383.40167955 -434.88145447 385.75822449 C-434.30964508 389.75525799 -433.76978926 393.75245755 -433.2890625 397.76171875 C-429.3319199 430.03356135 -420.67545943 463.08028401 -410.71484375 493.98046875 C-409.99820607 497.00757766 -410.13761159 498.13220098 -411 501 C-417.55537679 483.25186496 -423.60149383 465.57971328 -428.18945312 447.20263672 C-429.00482976 443.98091665 -429.86484283 440.77389547 -430.734375 437.56640625 C-436.14489067 417.27884333 -439.69676386 396.7175343 -443 376 C-443.16498993 374.97646423 -443.16498993 374.97646423 -443.33331299 373.93225098 C-452.29430875 318.18703159 -452.46902706 260.99646718 -446 205 C-445.90805359 204.20072083 -445.81610718 203.40144165 -445.72137451 202.57794189 C-442.14300386 171.87701172 -436.4834728 141.06025463 -427.70458984 111.40673828 C-426.98036892 108.93294416 -426.29286924 106.45124627 -425.61328125 103.96484375 C-422.83295852 93.8625243 -419.72881786 83.8850635 -416.4375 73.9375 C-416.07358154 72.83188721 -415.70966309 71.72627441 -415.3347168 70.5871582 C-414.25883082 67.37783787 -413.13314312 64.18948778 -412 61 C-411.47067871 59.36526733 -411.47067871 59.36526733 -410.93066406 57.69750977 C-409.12670002 52.62744173 -407.74391735 48.82850991 -402.9296875 46.09765625 C-401.26366559 45.3741566 -399.57639264 44.69838037 -397.875 44.0625 C-396.93922119 43.67537842 -396.00344238 43.28825684 -395.03930664 42.8894043 C-391.71204636 41.53794425 -388.36059842 40.26624719 -385 39 C-383.62740075 38.47295786 -382.25518324 37.94492074 -380.88330078 37.41601562 C-370.63730937 33.47514976 -360.33818014 29.6916877 -350 26 C-348.41445313 25.43273193 -348.41445313 25.43273193 -346.796875 24.85400391 C-333.37251939 20.09876341 -319.71412795 16.39117508 -305.94287109 12.78466797 C-302.6836837 11.91565948 -299.44611161 10.98549128 -296.20849609 10.04003906 C-269.45025205 2.30165773 -241.87008219 -1.63601903 -214.3651123 -5.65368652 C-212.30961154 -5.95466488 -210.25483571 -6.26058608 -208.20019531 -6.56738281 C-139.68157133 -16.69111955 -67.84882352 -12.79604302 0 0 Z " fill="#07460B" transform="translate(637,231)"/>
<path d="M0 0 C25.24452988 -1.56259126 50.18953841 6.39358674 73.6328125 15.0625 C78.69698897 16.92626586 83.80363163 18.48846931 89 19.9375 C89.89936279 20.18983398 90.79872559 20.44216797 91.7253418 20.70214844 C93.57841007 21.21976709 95.43216981 21.73491686 97.28662109 22.24755859 C99.86732541 22.96320829 102.44339506 23.6938954 105.01953125 24.42578125 C120.41259324 28.73390727 135.13383435 30.17193514 151.0625 30.25 C151.7371933 30.2554483 152.4118866 30.26089661 153.10702515 30.26651001 C162.94235502 30.32552587 172.29357443 29.5135585 182 28 C183.74996915 27.73937613 185.49996548 27.47893457 187.25 27.21875 C188.03173584 27.09999512 188.81347168 26.98124023 189.61889648 26.85888672 C199.17708126 25.41824983 208.7247399 24.39964458 218.36132812 23.64648438 C219.27205078 23.57494141 220.18277344 23.50339844 221.12109375 23.4296875 C222.31883423 23.34050049 222.31883423 23.34050049 223.54077148 23.24951172 C226.05314541 23.02714392 226.05314541 23.02714392 228.72045898 22.50561523 C235.66797567 21.4344988 242.71996927 21.41420032 249.73779297 21.26538086 C251.65263544 21.21372901 253.56699992 21.13876476 255.47998047 21.03979492 C272.271982 20.18903496 272.271982 20.18903496 277.90527344 24.65869141 C280.94851842 27.5168036 283.44492139 30.70753618 286 34 C286.99 34.66 287.98 35.32 289 36 C289 36.66 289 37.32 289 38 C289.56203125 38.23976563 290.1240625 38.47953125 290.703125 38.7265625 C293.48900172 40.2711132 295.45050837 42.16834499 297.75 44.375 C329.80691428 73.87757848 373.48052182 88.47599923 415.02661133 99.26489258 C421.49035676 100.9674444 425.70287753 103.44580652 430.3984375 108.16796875 C431.20796875 108.97943359 432.0175 109.79089844 432.8515625 110.62695312 C433.68429687 111.47193359 434.51703125 112.31691406 435.375 113.1875 C436.2 114.01314453 437.025 114.83878906 437.875 115.68945312 C445.09346164 122.95947521 451.71529973 130.52442019 458.0078125 138.60546875 C459.9736129 141.05680603 459.9736129 141.05680603 462.34375 143.26171875 C465.76405731 146.7876532 468.54059088 150.62267772 471.375 154.625 C472.21224609 155.7696875 472.21224609 155.7696875 473.06640625 156.9375 C473.58847656 157.67226563 474.11054687 158.40703125 474.6484375 159.1640625 C475.12458496 159.82873535 475.60073242 160.4934082 476.09130859 161.17822266 C477 163 477 163 476 166 C474.68 166 473.36 166 472 166 C470.09765625 163.71875 470.09765625 163.71875 468.0625 160.5 C460.0835126 148.34283235 450.5984735 137.39618061 440.640625 126.828125 C438.48122594 124.51539583 436.41270934 122.16858959 434.375 119.75 C433.25380368 118.49658713 432.1286799 117.24667826 431 116 C430.3709375 115.24976563 429.741875 114.49953125 429.09375 113.7265625 C421.66853862 105.85688424 412.67572513 104.17048791 402.53564453 101.65869141 C399.03803949 100.75010885 395.66604779 99.61758924 392.25 98.4375 C387.93691244 96.95792951 383.6276597 95.59580416 379.23217773 94.38232422 C343.40052117 84.39652286 313.32735659 68.00941116 286 43 C284.93800749 42.04240563 283.87548339 41.08540057 282.8125 40.12890625 C281.72897796 39.14864604 280.64564186 38.16818028 279.5625 37.1875 C279.05404541 36.73133301 278.54559082 36.27516602 278.02172852 35.80517578 C275.96632259 33.93424263 274.1411458 32.21803418 272.625 29.87597656 C271.16711162 27.82479725 271.16711162 27.82479725 268.90405273 27.49829102 C268.08880127 27.50014404 267.2735498 27.50199707 266.43359375 27.50390625 C265.49104736 27.50100586 264.54850098 27.49810547 263.57739258 27.49511719 C262.02314575 27.52847168 262.02314575 27.52847168 260.4375 27.5625 C259.34268311 27.57571289 258.24786621 27.58892578 257.11987305 27.60253906 C234.18501164 28.07998396 211.39688932 30.95886095 188.69921875 34.08203125 C142.87048653 40.38484722 104.79346605 32.68851367 61.38037109 18.3515625 C45.99094895 13.2725518 30.9899048 8.63671634 14.9375 6.1875 C13.56949913 5.97042153 12.20165952 5.7523244 10.83398438 5.53320312 C7.55741593 5.01219401 4.27964405 4.50121341 1 4 C0.67 2.68 0.34 1.36 0 0 Z " fill="#084609" transform="translate(315,577)"/>
<path d="M0 0 C2.18066135 0.0032134 4.36002703 -0.02061622 6.54052734 -0.0456543 C7.95328609 -0.04792346 9.3660484 -0.04863257 10.77880859 -0.04760742 C12.02919922 -0.05058838 13.27958984 -0.05356934 14.56787109 -0.05664062 C19.63407356 0.46936419 23.40759111 2.13697703 27.65380859 5.00317383 C29.98472738 8.59667363 28.97780383 11.19569767 28.15380859 15.31567383 C27.49380859 15.31567383 26.83380859 15.31567383 26.15380859 15.31567383 C25.65880859 14.71754883 25.16380859 14.11942383 24.65380859 13.50317383 C15.52446249 5.51499598 -0.9807002 6.85011691 -12.25732422 7.51757812 C-15.93729709 7.80859899 -19.60978756 8.14352857 -23.28369141 8.50317383 C-24.27956772 8.59962692 -24.27956772 8.59962692 -25.29556274 8.69802856 C-44.64598472 10.60003367 -63.76666105 14.08006425 -82.77270508 18.14746094 C-86.52080029 18.93582083 -90.01024968 19.52117071 -93.84619141 19.31567383 C-94.17619141 18.32567383 -94.50619141 17.33567383 -94.84619141 16.31567383 C-78.21938453 12.10101655 -61.58821969 8.0807037 -44.72119141 4.94067383 C-43.45082031 4.70268066 -42.18044922 4.4646875 -40.87158203 4.21948242 C-27.2168271 1.73403031 -13.87690155 -0.04276151 0 0 Z " fill="#064509" transform="translate(431.84619140625,347.684326171875)"/>
<path d="M0 0 C0.99 0.33 1.98 0.66 3 1 C-0.20229966 4.52658316 -3.41971997 8.03811998 -6.65478516 11.53466797 C-7.70460448 12.67822796 -8.73674404 13.83802593 -9.76171875 15.00390625 C-15.72909236 21.50380139 -24.12916362 27.06458181 -32 31 C-33.81548036 31.01623244 -35.63179299 30.96480981 -37.4453125 30.87890625 C-38.52167969 30.83056641 -39.59804688 30.78222656 -40.70703125 30.73242188 C-41.83496094 30.67634766 -42.96289062 30.62027344 -44.125 30.5625 C-45.26066406 30.51029297 -46.39632813 30.45808594 -47.56640625 30.40429688 C-50.37786631 30.27435544 -53.18899465 30.13938086 -56 30 C-56.40605469 31.85818359 -56.40605469 31.85818359 -56.8203125 33.75390625 C-57.62869711 37.39731984 -58.48411074 41.02633993 -59.3671875 44.65234375 C-65.28723562 69.15704458 -70.52105063 93.75149058 -67 119 C-71.75555419 114.76415579 -73.06806102 108.67053465 -73.43359375 102.4765625 C-73.45769573 100.85955409 -73.45777067 99.24206098 -73.4375 97.625 C-73.42396484 96.27595581 -73.42396484 96.27595581 -73.41015625 94.8996582 C-72.88790462 73.56531662 -69.76406221 44.52812442 -60 25 C-55.24454659 24.92451661 -50.5689351 24.92211481 -45.83203125 25.36328125 C-34.54934873 26.37686734 -28.97001778 25.38707346 -20 18 C-19.34 18 -18.68 18 -18 18 C-18 17.34 -18 16.68 -18 16 C-16.00715862 14.6559907 -14.00580329 13.32458708 -12 12 C-10.29006566 10.3777546 -8.62652316 8.70586575 -7 7 C-5.73182253 5.72651635 -4.46088776 4.45577376 -3.1875 3.1875 C-2.58292969 2.58292969 -1.97835937 1.97835938 -1.35546875 1.35546875 C-0.90816406 0.90816406 -0.46085938 0.46085937 0 0 Z " fill="#104909" transform="translate(538,373)"/>
<path d="M0 0 C3.82188833 3.71727459 7.31173291 7.61566208 10.75 11.6875 C22.3536287 25.29883619 34.22428027 38.76510767 48.31640625 49.87109375 C51.13709475 52.10875785 53.84035666 54.45629637 56.5625 56.8125 C64.24708043 63.2246014 72.59431018 68.58985839 81 74 C81.69706055 74.45439453 82.39412109 74.90878906 83.11230469 75.37695312 C91.50630737 80.84412609 100.01768897 85.67882358 109.02734375 90.0546875 C113.10535234 92.03575123 117.1218683 94.1222317 121.125 96.25 C121.72836182 96.56727051 122.33172363 96.88454102 122.95336914 97.21142578 C126.80708816 99.26710267 130.40555327 101.53086638 134 104 C133.67 104.66 133.34 105.32 133 106 C129.53920483 105.41692505 126.68693679 104.53963287 123.54296875 102.98828125 C122.69001221 102.56756348 121.83705566 102.1468457 120.95825195 101.71337891 C120.04390381 101.25108887 119.12955566 100.78879883 118.1875 100.3125 C117.22481201 99.82700684 116.26212402 99.34151367 115.27026367 98.84130859 C72.32882206 76.88415123 23.93113355 45.50394807 0 2 C0 1.34 0 0.68 0 0 Z " fill="#0C490A" transform="translate(281,581)"/>
<path d="M0 0 C1.32 0.33 2.64 0.66 4 1 C3.50847817 6.99339517 1.66467883 11.4570001 -1.125 16.75 C-1.49109375 17.50410156 -1.8571875 18.25820313 -2.234375 19.03515625 C-2.80285156 20.12376953 -2.80285156 20.12376953 -3.3828125 21.234375 C-3.71684082 21.88631836 -4.05086914 22.53826172 -4.39501953 23.20996094 C-8.28062269 27.54358467 -14.82467035 28.58319363 -20.27734375 29.796875 C-21.6802107 30.11516189 -23.0830413 30.433609 -24.48583984 30.75219727 C-25.21228699 30.91470978 -25.93873413 31.07722229 -26.68719482 31.24465942 C-51.16116031 36.74066412 -76.18064687 42.87813163 -99.02734375 53.46875 C-101.60206109 54.16213922 -103.45361457 53.67313145 -106 53 C-105.67 52.01 -105.34 51.02 -105 50 C-102.57006836 48.82080078 -102.57006836 48.82080078 -99.33984375 47.6953125 C-97.57278076 47.07124512 -97.57278076 47.07124512 -95.77001953 46.43457031 C-94.49271177 45.99746567 -93.21520089 45.56095417 -91.9375 45.125 C-90.63893494 44.67349879 -89.34059535 44.2213486 -88.04248047 43.76855469 C-73.66060713 38.77418894 -59.18818731 34.43127613 -44.48828125 30.484375 C-40.97808997 29.54076857 -37.47589299 28.57503249 -33.98046875 27.578125 C-33.19712158 27.35624512 -32.41377441 27.13436523 -31.60668945 26.90576172 C-30.09362733 26.47327424 -28.58294317 26.03236679 -27.07495117 25.58251953 C-22.89197921 24.37051923 -19.31638009 23.93564931 -14.9375 23.875 C-11.99282694 23.07369885 -10.41181818 22.53654926 -8.53295898 20.08862305 C-8.14954346 19.32074463 -7.76612793 18.55286621 -7.37109375 17.76171875 C-6.95029541 16.92334473 -6.52949707 16.0849707 -6.09594727 15.22119141 C-3.80658122 10.23594921 -1.73491115 5.20473344 0 0 Z " fill="#F6F9ED" transform="translate(461,357)"/>
<path d="M0 0 C0.99 1.485 0.99 1.485 2 3 C-0.31294186 4.15647093 -1.97519309 4.26020935 -4.55078125 4.46484375 C-5.46988281 4.5414624 -6.38898438 4.61808105 -7.3359375 4.69702148 C-8.31820312 4.77637939 -9.30046875 4.8557373 -10.3125 4.9375 C-17.42633725 5.54834726 -24.46011661 6.25455482 -31.50390625 7.4453125 C-34.30323162 7.88945127 -37.09021617 8.27106311 -39.90234375 8.6171875 C-57.55181859 10.81107782 -74.68032964 14.33461091 -91.58984375 19.88671875 C-95.04169709 21.01361245 -98.50364292 22.0220917 -102 23 C-102.99 22.01 -103.98 21.02 -105 20 C-98.8083035 16.6519516 -92.71482927 14.49063879 -85.9375 12.625 C-84.85968262 12.32754883 -83.78186523 12.03009766 -82.67138672 11.72363281 C-23.63409702 -4.07898121 -23.63409702 -4.07898121 0 0 Z " fill="#F5EEAA" transform="translate(380,538)"/>
<path d="M0 0 C6.0766956 3.74289222 11.37180307 7.94519547 16.60546875 12.79296875 C18.65122405 14.67853441 20.73971547 16.46838578 22.875 18.25 C37.49944662 31.10536033 53.75119669 49.74134461 55.875 69.875 C55.94127173 71.2490339 55.99366075 72.62438344 56 74 C54.17578125 73.4609375 54.17578125 73.4609375 52 72 C50.89752413 69.52312391 50.01541339 67.19029051 49.1875 64.625 C45.10904403 52.96965592 39.07974052 43.32933132 31 34 C30.15308594 33.01902344 29.30617188 32.03804688 28.43359375 31.02734375 C21.71260738 23.39870395 14.47274221 15.96270186 5.5 11 C1.82854045 8.06283236 1.08625164 4.45934886 0 0 Z " fill="#F7F9F0" transform="translate(631,444)"/>
<path d="M0 0 C2.89164721 3.33651601 3.26677214 5.45893959 3.4375 9.8125 C1.5625 9.5625 1.5625 9.5625 -0.5625 8.8125 C-1.22916667 7.47916667 -1.89583333 6.14583333 -2.5625 4.8125 C-16.36829219 -4.99687866 -46.27260395 0.50405322 -61.89916992 3.02905273 C-70.62895907 4.54118045 -79.31762988 6.31036701 -87.96508789 8.23706055 C-89.35522095 8.5451062 -89.35522095 8.5451062 -90.7734375 8.859375 C-91.58087402 9.04338867 -92.38831055 9.22740234 -93.22021484 9.41699219 C-95.70832971 9.83712415 -98.04388026 9.88067653 -100.5625 9.8125 C-97.19511027 7.56757351 -93.89042914 6.53930218 -90.05078125 5.42578125 C-88.92413811 5.09831657 -88.92413811 5.09831657 -87.7747345 4.76423645 C-79.19637462 2.33815736 -70.51940092 0.57661812 -61.75 -1 C-60.91087067 -1.1525827 -60.07174133 -1.30516541 -59.20718384 -1.46237183 C-13.32414985 -9.66777353 -13.32414985 -9.66777353 0 0 Z " fill="#B69104" transform="translate(461.5625,348.1875)"/>
<path d="M0 0 C2.43332336 2.99921251 4.00801686 5.94219405 5.5 9.5 C5.9021875 10.4384375 6.304375 11.376875 6.71875 12.34375 C9.96891233 21.61860348 11.5088165 30.23787928 11.375 40.0625 C11.36194824 41.68333496 11.36194824 41.68333496 11.34863281 43.33691406 C11.0888346 57.76210312 8.81334261 71.39070136 4 85 C1.525 85.495 1.525 85.495 -1 86 C-0.04484629 81.62221215 0.93388552 77.25342042 1.98828125 72.8984375 C2.16456055 72.1655249 2.34083984 71.4326123 2.52246094 70.67749023 C2.87500492 69.21519773 3.23097193 67.75372505 3.59082031 66.29321289 C8.36348417 46.42780422 8.22952372 24.12860866 1 5 C0.62684847 3.34179409 0.27582507 1.67714323 0 0 Z " fill="#0E4B10" transform="translate(487,289)"/>
<path d="M0 0 C6.58941398 -0.33791867 12.68436123 0.94438849 19.125 2.25 C21.43745223 2.70727291 23.74995301 3.16430032 26.0625 3.62109375 C27.21878906 3.8516748 28.37507813 4.08225586 29.56640625 4.31982422 C34.74717704 5.34610603 39.93574527 6.33018683 45.125 7.3125 C46.85679416 7.64180446 48.58856744 7.97121869 50.3203125 8.30078125 C51.53460938 8.53152344 52.74890625 8.76226562 54 9 C53.67 10.98 53.34 12.96 53 15 C43.89970564 14.39018646 35.13093656 12.51344922 26.22998047 10.61645508 C23.61199259 10.05973394 20.99174422 9.51473628 18.37109375 8.97070312 C16.69776972 8.61788372 15.02458725 8.2643921 13.3515625 7.91015625 C12.18278061 7.66786034 12.18278061 7.66786034 10.99038696 7.42066956 C3.82604897 5.8781507 3.82604897 5.8781507 1 4 C0.25 1.875 0.25 1.875 0 0 Z " fill="#06450A" transform="translate(358,425)"/>
<path d="M0 0 C1.33333333 0.66666667 2.66666667 1.33333333 4 2 C4.96486328 2.32871094 4.96486328 2.32871094 5.94921875 2.6640625 C9.01970372 4.66426414 9.69447326 7.1437744 11.0625 10.5 C11.31926514 11.1293042 11.57603027 11.7586084 11.84057617 12.40698242 C15.08849243 20.50666053 17.54147707 28.26027507 18 37 C18.05285156 37.96550781 18.10570312 38.93101562 18.16015625 39.92578125 C18.46199205 50.67376041 16.56267532 60.85412029 13 71 C11 70 11 70 9.7890625 67.78125 C8.82462421 64.38184374 9.32211717 62.84762747 10.375 59.5 C14.60108069 42.76623656 13.09196444 24.01583099 4.875 8.75 C3.92351212 7.16254353 2.96597665 5.57868184 2 4 C1.31893932 2.67396132 0.64687937 1.34304479 0 0 Z " fill="#D0AB04" transform="translate(460,264)"/>
<path d="M0 0 C4.91569864 1.36505744 8.73235499 3.57931386 12.8125 6.5625 C13.42633545 7.01012695 14.0401709 7.45775391 14.67260742 7.91894531 C25.50505848 15.9724949 34.69102442 26.4085553 40 39 C40 39.99 40 40.98 40 42 C40.87398438 41.94779297 40.87398438 41.94779297 41.765625 41.89453125 C48.63520883 41.66770537 55.65657737 42.17104592 62 45 C63.84765625 47.61328125 63.84765625 47.61328125 65 50 C61.69744217 51.65127891 58.36837754 50.00761121 54.9375 49.125 C48.94928876 47.64164118 43.16912607 46.44866371 37 46 C36.72027344 45.18917969 36.44054687 44.37835938 36.15234375 43.54296875 C29.73526241 25.81861869 19.37518797 12.15270099 2.375 3.5625 C1.26125 3.046875 0.1475 2.53125 -1 2 C-0.67 1.34 -0.34 0.68 0 0 Z " fill="#F5F7EC" transform="translate(407,284)"/>
<path d="M0 0 C-8.73601274 6.06613019 -17.1383131 7.27666473 -27.38818359 8.62158203 C-31.85314823 9.26849689 -36.26472072 10.17754005 -40.6875 11.0625 C-49.42687656 12.78143002 -58.14403929 14.04801554 -67 15 C-62.44703018 8.76074506 -56.28031867 8.292741 -49 7 C-47.96812561 6.81519073 -47.96812561 6.81519073 -46.91540527 6.62664795 C-41.57693858 5.6780451 -36.22756252 4.80236548 -30.875 3.9375 C-28.51335495 3.55229635 -26.15191273 3.16588153 -23.79058838 2.77871704 C-22.27496604 2.53052719 -20.75914108 2.28357109 -19.24310303 2.03793335 C-14.13205557 1.20514447 -9.04751382 0.27226756 -3.97314453 -0.76342773 C-2 -1 -2 -1 0 0 Z " fill="#F1F5E8" transform="translate(547,365)"/>
<path d="M0 0 C7.36303969 0.46018998 13.46325495 6.9732824 18.34375 12.03125 C32.75948597 29.16693616 35.75930865 49.49988361 35 71 C33.68 71 32.36 71 31 71 C30.98598145 70.17145508 30.98598145 70.17145508 30.97167969 69.32617188 C30.51946064 47.92113698 27.12285505 24.80918082 11 9 C8.12174596 6.72235724 5.19745257 4.59154252 2.16015625 2.53125 C1.44730469 2.0259375 0.73445313 1.520625 0 1 C0 0.67 0 0.34 0 0 Z " fill="#F7F7ED" transform="translate(459,262)"/>
<path d="M0 0 C10.65445196 0.78921866 22.17695325 5.23748388 29.87890625 12.859375 C31.91463839 14.84674201 33.31297776 16.02330277 36 17 C39.84528772 16.45258057 43.40878626 15.37464566 47.08984375 14.18359375 C50.78493572 12.99965799 54.37977659 12.38486021 58.25 12 C59.28640625 11.896875 60.3228125 11.79375 61.390625 11.6875 C64 12 64 12 65.66308594 14.01953125 C66.10426758 14.67308594 66.54544922 15.32664062 67 16 C66.39639648 16.10546143 65.79279297 16.21092285 65.17089844 16.31958008 C48.97215359 19.13555028 48.97215359 19.13555028 33 23 C32.46632813 22.35933594 31.93265625 21.71867187 31.3828125 21.05859375 C23.50548528 11.9138073 16.16163763 6.15428082 4.46875 2.82421875 C2 2 2 2 0 0 Z " fill="#F5F7EA" transform="translate(363,314)"/>
<path d="M0 0 C1.66728484 0.11646475 3.333818 0.24369761 5 0.375 C5.928125 0.44460938 6.85625 0.51421875 7.8125 0.5859375 C10.79493283 0.97336137 13.57523337 1.66381655 16.47900391 2.42480469 C22.98041334 3.90817876 29.65065824 4.75430881 36.24487305 5.74731445 C38.24155964 6.04974146 40.2360583 6.36650323 42.23046875 6.68359375 C43.41020264 6.86462646 44.58993652 7.04565918 45.80541992 7.23217773 C49.09696073 8.02330466 51.29822067 8.97281763 54 11 C54.495 12.485 54.495 12.485 55 14 C53.68 14 52.36 14 51 14 C50.67 14.66 50.34 15.32 50 16 C50 15.01 50 14.02 50 13 C48.865625 12.89558594 47.73125 12.79117187 46.5625 12.68359375 C39.75595465 11.92597945 33.02773472 10.67438497 26.2890625 9.47094727 C24.00584306 9.0635426 21.72175387 8.66132529 19.4375 8.25976562 C12.2552641 6.98984348 5.10211263 5.67061058 -2 4 C-1.34 2.68 -0.68 1.36 0 0 Z " fill="#B48E04" transform="translate(362,421)"/>
<path d="M0 0 C0.598125 0.309375 1.19625 0.61875 1.8125 0.9375 C4.08956772 2.10209704 4.08956772 2.10209704 7 3 C8.55719309 5.1215247 9.91598793 7.18064397 11.25 9.4375 C11.641875 10.09621094 12.03375 10.75492187 12.4375 11.43359375 C15.4158196 16.61664344 17.82535853 21.93571414 20 27.5 C20.29036133 28.24048584 20.58072266 28.98097168 20.87988281 29.74389648 C22.53489047 34.17509445 23.50472851 38.29492087 24 43 C18 40 18 40 16.9921875 37.40234375 C16.62351562 36.25894531 16.25484375 35.11554688 15.875 33.9375 C13.26193375 26.19104896 9.70594055 19.05955182 5.94140625 11.81835938 C4.59940391 9.22623452 3.29944698 6.61366041 2 4 C1.608125 3.21625 1.21625 2.4325 0.8125 1.625 C0.544375 1.08875 0.27625 0.5525 0 0 Z " fill="#CCA906" transform="translate(407,286)"/>
<path d="M0 0 C-1.58904468 3.17808937 -4.84104311 3.92373091 -7.96484375 5.30078125 C-8.67218155 5.61903366 -9.37951935 5.93728607 -10.10829163 6.2651825 C-12.38203207 7.28702041 -14.65952311 8.300146 -16.9375 9.3125 C-19.90630704 10.63890651 -22.87330921 11.96930144 -25.83984375 13.30078125 C-26.55473969 13.62023712 -27.26963562 13.93969299 -28.00619507 14.26882935 C-32.79383825 16.41948528 -37.48780667 18.70401709 -42.11938477 21.17651367 C-44 22 -44 22 -47 22 C-47 22.66 -47 23.32 -47 24 C-48.65 24.33 -50.3 24.66 -52 25 C-50.72967391 21.18902174 -49.55430052 20.88570155 -46.1015625 18.9609375 C-45.07337402 18.3841626 -44.04518555 17.8073877 -42.98583984 17.21313477 C-41.8767627 16.60655029 -40.76768555 15.99996582 -39.625 15.375 C-38.49916504 14.75488037 -37.37333008 14.13476074 -36.21337891 13.49584961 C-29.32706712 9.73573418 -22.41151623 6.03453075 -15.375 2.5625 C-14.25085693 1.98798096 -14.25085693 1.98798096 -13.10400391 1.40185547 C-8.23049458 -0.92441522 -5.2683025 -1.27904982 0 0 Z " fill="#F9FAF2" transform="translate(387,340)"/>
<path d="M0 0 C0 1.65 0 3.3 0 5 C-2.90808906 6.37316498 -5.82760613 7.72008134 -8.75 9.0625 C-9.575 9.45244141 -10.4 9.84238281 -11.25 10.24414062 C-12.04921875 10.60830078 -12.8484375 10.97246094 -13.671875 11.34765625 C-14.4050293 11.68804932 -15.13818359 12.02844238 -15.89355469 12.37915039 C-18.33409719 13.09847116 -19.62789536 12.82742385 -22 12 C-22.33 10.68 -22.66 9.36 -23 8 C-21.79601562 7.50628906 -20.59203125 7.01257813 -19.3515625 6.50390625 C-17.77602532 5.85681062 -16.20050538 5.20967303 -14.625 4.5625 C-13.43390625 4.07426758 -13.43390625 4.07426758 -12.21875 3.57617188 C-11.45820312 3.26357422 -10.69765625 2.95097656 -9.9140625 2.62890625 C-9.2123291 2.34088135 -8.5105957 2.05285645 -7.78759766 1.75610352 C-3.63577656 0 -3.63577656 0 0 0 Z " fill="#064409" transform="translate(688,519)"/>
<path d="M0 0 C10.5774023 2.37991552 17.42418953 12.34956318 23 21 C23.75390625 23.36328125 23.75390625 23.36328125 24 25 C21.25 24.9375 21.25 24.9375 18 24 C17.02789696 22.34158387 16.06397026 20.67731203 15.16015625 18.98071289 C13.15557941 15.55833665 10.5027748 12.70384904 7.875 9.75 C6.80848286 8.53769994 5.74332475 7.32420258 4.6796875 6.109375 C3.97948486 5.31998535 3.97948486 5.31998535 3.26513672 4.51464844 C2 3 2 3 0 0 Z " fill="#BC9909" transform="translate(363,315)"/>
<path d="M0 0 C0 0.66 0 1.32 0 2 C-2.93342898 3.34242421 -5.87236252 4.67234067 -8.8125 6 C-10.06256836 6.57234375 -10.06256836 6.57234375 -11.33789062 7.15625 C-12.14033203 7.5171875 -12.94277344 7.878125 -13.76953125 8.25 C-14.50792236 8.58515625 -15.24631348 8.9203125 -16.00708008 9.265625 C-18 10 -18 10 -21 10 C-21.33 10.66 -21.66 11.32 -22 12 C-24.31 11.34 -26.62 10.68 -29 10 C-25.51684149 6.51684149 -20.69171462 5.17224911 -16.1875 3.3125 C-14.68993164 2.66958008 -14.68993164 2.66958008 -13.16210938 2.01367188 C-12.19466797 1.61341797 -11.22722656 1.21316406 -10.23046875 0.80078125 C-9.34770264 0.43122314 -8.46493652 0.06166504 -7.55541992 -0.3190918 C-4.64895638 -1.09353785 -2.86660388 -0.80803383 0 0 Z " fill="#AF8804" transform="translate(686,517)"/>
<path d="M0 0 C11.57298766 5.137665 20.92325792 17.74841176 26 29 C26 29.66 26 30.32 26 31 C24.35 31 22.7 31 21 31 C20.5875 30.10539062 20.175 29.21078125 19.75 28.2890625 C15.99172814 20.34366347 11.83893747 13.64105414 6 7 C4.8332024 5.62511111 3.66652158 4.25012309 2.5 2.875 C1.675 1.92625 0.85 0.9775 0 0 Z " fill="#0B4B13" transform="translate(426,295)"/>
<path d="M0 0 C5.61552798 0.31906409 10.3601672 2.09208563 15.5 4.1875 C16.27593506 4.49776123 17.05187012 4.80802246 17.85131836 5.12768555 C19.44872204 5.76687501 21.04499853 6.40888861 22.64013672 7.05371094 C24.91059905 7.96415083 27.18904692 8.84969716 29.47265625 9.7265625 C30.83596723 10.25513165 32.19924994 10.78377374 33.5625 11.3125 C34.78066406 11.78300781 35.99882813 12.25351562 37.25390625 12.73828125 C40 14 40 14 41 16 C36.21129539 15.22356674 31.7665979 13.64191492 27.19921875 12.05859375 C26.36284378 11.77146011 25.52646881 11.48432648 24.66474915 11.18849182 C22.00462604 10.27448582 19.34605419 9.35605824 16.6875 8.4375 C14.87965798 7.8154625 13.07171635 7.19371442 11.26367188 6.57226562 C6.84128678 5.05152798 2.42028724 3.52682413 -2 2 C-1.34 1.34 -0.68 0.68 0 0 Z " fill="#1C540E" transform="translate(739,259)"/>
<path d="M0 0 C1.32 0.33 2.64 0.66 4 1 C5.1703918 4.91070063 6.32762267 8.82503262 7.47290039 12.74316406 C7.86417365 14.07495129 8.25900035 15.40569997 8.6574707 16.73535156 C9.23025068 18.64890862 9.78913152 20.56660868 10.34765625 22.484375 C10.68804932 23.63647461 11.02844238 24.78857422 11.37915039 25.97558594 C11.97026284 28.85513805 12.02442649 30.29528189 11 33 C9.42941507 28.62317168 7.86294154 24.24490249 6.30029297 19.86523438 C5.76789857 18.37491984 5.23437445 16.88500839 4.69970703 15.39550781 C3.93225901 13.25690498 3.16885919 11.11689483 2.40625 8.9765625 C2.16563843 8.30879791 1.92502686 7.64103333 1.67712402 6.95303345 C0 2.22774341 0 2.22774341 0 0 Z " fill="#13500D" transform="translate(215,699)"/>
<path d="M0 0 C0 0.66 0 1.32 0 2 C-3.72728171 2.84191873 -7.45710003 3.6720168 -11.1875 4.5 C-12.24259766 4.73847656 -13.29769531 4.97695313 -14.38476562 5.22265625 C-15.91713867 5.56103516 -15.91713867 5.56103516 -17.48046875 5.90625 C-18.41785889 6.11572266 -19.35524902 6.32519531 -20.32104492 6.54101562 C-22.93971199 6.98967088 -25.34939083 7.08407959 -28 7 C-25.48184386 5.32122924 -23.99535449 4.56429967 -21.19921875 3.74609375 C-20.10383789 3.42415039 -20.10383789 3.42415039 -18.98632812 3.09570312 C-18.22771484 2.87849609 -17.46910156 2.66128906 -16.6875 2.4375 C-15.56698242 2.10588867 -15.56698242 2.10588867 -14.42382812 1.76757812 C-3.06609175 -1.53304588 -3.06609175 -1.53304588 0 0 Z " fill="#DABB01" transform="translate(389,351)"/>
<path d="M0 0 C3.63 0.33 7.26 0.66 11 1 C10.34 2.32 9.68 3.64 9 5 C5.37 4.67 1.74 4.34 -2 4 C-1.34 2.68 -0.68 1.36 0 0 Z " fill="#D8B402" transform="translate(362,421)"/>
<path d="M0 0 C4.36534836 1.2979808 7.92104178 2.97829341 11.75 5.4375 C12.69359375 6.03433594 13.6371875 6.63117188 14.609375 7.24609375 C17 9 17 9 19 12 C18.01 12.33 17.02 12.66 16 13 C13.4765625 11.234375 13.4765625 11.234375 10.625 8.75 C7.20306149 5.78997605 3.89444069 3.29417961 0 1 C0 0.67 0 0.34 0 0 Z " fill="#0E4D15" transform="translate(382,319)"/>
<path d="M0 0 C1.8871875 0.061875 1.8871875 0.061875 3.8125 0.125 C3.8125 0.455 3.8125 0.785 3.8125 1.125 C1.5025 1.125 -0.8075 1.125 -3.1875 1.125 C-2.1975 3.435 -1.2075 5.745 -0.1875 8.125 C-2.1675 9.115 -2.1675 9.115 -4.1875 10.125 C-5.5075 8.145 -6.8275 6.165 -8.1875 4.125 C-6.31943932 0.38887864 -3.84663472 -0.12611917 0 0 Z " fill="#B49704" transform="translate(318.1875,575.875)"/>
<path d="M0 0 C0.66 0.33 1.32 0.66 2 1 C-1.17320782 4.53586014 -3.16743695 6.58578031 -8 7 C-8 7.66 -8 8.32 -8 9 C-9.65 9.33 -11.3 9.66 -13 10 C-11.64649404 5.93948213 -9.72487336 5.35771547 -6.0625 3.25 C-4.98097656 2.61578125 -3.89945312 1.9815625 -2.78515625 1.328125 C-1.86605469 0.88984375 -0.94695312 0.4515625 0 0 Z " fill="#EDF2D7" transform="translate(348,355)"/>
<path d="M0 0 C0.33 0.66 0.66 1.32 1 2 C-0.73397418 5.65047197 -2.19333016 7.55609075 -6 9 C-5.47731534 6.23723823 -4.89130413 3.6739124 -4 1 C-1.9375 0.3125 -1.9375 0.3125 0 0 Z " fill="#B38C0C" transform="translate(486,370)"/>
<path d="M0 0 C0 0.66 0 1.32 0 2 C-3.63 2.66 -7.26 3.32 -11 4 C-10.67 3.01 -10.34 2.02 -10 1 C-8.22265625 0.234375 -8.22265625 0.234375 -6.0625 -0.25 C-5.35222656 -0.42015625 -4.64195312 -0.5903125 -3.91015625 -0.765625 C-2 -1 -2 -1 0 0 Z " fill="#CFB102" transform="translate(389,351)"/>
<path d="M0 0 C4.61513112 1.31860889 8.09897612 3.21355437 12 6 C11.34 6.66 10.68 7.32 10 8 C6.37 6.02 2.74 4.04 -1 2 C-0.67 1.34 -0.34 0.68 0 0 Z " fill="#F1F2D8" transform="translate(407,284)"/>
<path d="M0 0 C4.95 0 9.9 0 15 0 C15 0.33 15 0.66 15 1 C11.37 1 7.74 1 4 1 C4.33 1.99 4.66 2.98 5 4 C4.01 4.33 3.02 4.66 2 5 C1.34 3.35 0.68 1.7 0 0 Z " fill="#C19903" transform="translate(307,572)"/>
<path d="M0 0 C1.32 0 2.64 0 4 0 C4 1.98 4 3.96 4 6 C2.68 6.33 1.36 6.66 0 7 C0 4.69 0 2.38 0 0 Z " fill="#FFE851" transform="translate(490,333)"/>
<path d="M0 0 C6.46153846 0.46153846 6.46153846 0.46153846 9 3 C9 3.66 9 4.32 9 5 C5.37 4.01 1.74 3.02 -2 2 C-1.34 1.34 -0.68 0.68 0 0 Z " fill="#20570E" transform="translate(739,259)"/>
<path d="M0 0 C4.40114397 0.50298788 6.71195019 2.08772731 10 5 C9.01 5.33 8.02 5.66 7 6 C5.17578125 5.0390625 5.17578125 5.0390625 3.3125 3.625 C2.68988281 3.16351563 2.06726563 2.70203125 1.42578125 2.2265625 C0.95527344 1.82179688 0.48476563 1.41703125 0 1 C0 0.67 0 0.34 0 0 Z " fill="#EEF1CE" transform="translate(459,262)"/>
<path d="M0 0 C0.66 0.33 1.32 0.66 2 1 C0.02 3.97 0.02 3.97 -2 7 C-2.99 6.67 -3.98 6.34 -5 6 C-2.25 1.125 -2.25 1.125 0 0 Z " fill="#5A6B0F" transform="translate(544,366)"/>
<path d="M0 0 C-3.26545761 1.88391785 -6.28111761 2.49287967 -10 3 C-10 2.34 -10 1.68 -10 1 C-6.21812119 -0.83691257 -4.05431692 -1.15837626 0 0 Z " fill="#D8C60E" transform="translate(350,361)"/>
<path d="M0 0 C0.33 0.99 0.66 1.98 1 3 C2.32 2.67 3.64 2.34 5 2 C4.67 3.32 4.34 4.64 4 6 C2.68 6 1.36 6 0 6 C0 4.02 0 2.04 0 0 Z " fill="#F8DC17" transform="translate(489,337)"/>
</svg>
