<svg xmlns="http://www.w3.org/2000/svg" xmlns:xlink="http://www.w3.org/1999/xlink" width="500" zoomAndPan="magnify" viewBox="0 0 375 374.999991" height="500" preserveAspectRatio="xMidYMid meet" version="1.0"><defs><clipPath id="a13ba47973"><path d="M 119 47.355469 L 256 47.355469 L 256 193 L 119 193 Z M 119 47.355469 " clip-rule="nonzero"/></clipPath><clipPath id="ee571c1727"><path d="M 60 193 L 315 193 L 315 327.855469 L 60 327.855469 Z M 60 193 " clip-rule="nonzero"/></clipPath><clipPath id="06558fc36d"><path d="M 129.359375 238.441406 L 148.109375 238.441406 L 148.109375 262.441406 L 129.359375 262.441406 Z M 129.359375 238.441406 " clip-rule="nonzero"/></clipPath><clipPath id="ea74b718af"><path d="M 218.21875 231.550781 L 280.46875 231.550781 L 280.46875 293.800781 L 218.21875 293.800781 Z M 218.21875 231.550781 " clip-rule="nonzero"/></clipPath><clipPath id="0abb673b3f"><path d="M 136.496094 231.257812 L 155.246094 231.257812 L 155.246094 255.257812 L 136.496094 255.257812 Z M 136.496094 231.257812 " clip-rule="nonzero"/></clipPath></defs><g clip-path="url(#a13ba47973)"><path fill="#000000" d="M 187.667969 192.855469 C 225.238281 192.855469 255.796875 153 255.796875 115.457031 C 255.796875 77.910156 225.238281 47.355469 187.667969 47.355469 C 150.097656 47.355469 119.535156 77.910156 119.535156 115.457031 C 119.542969 153 150.101562 192.855469 187.667969 192.855469 Z M 187.667969 192.855469 " fill-opacity="1" fill-rule="nonzero"/></g><g clip-path="url(#ee571c1727)"><path fill="#000000" d="M 238.816406 193.550781 C 225.601562 203.617188 209.113281 209.601562 191.253906 209.601562 L 184.082031 209.601562 C 166.222656 209.601562 149.730469 203.613281 136.519531 193.550781 C 93.367188 200.523438 60.414062 237.90625 60.414062 282.996094 C 60.414062 307.769531 117.386719 327.855469 187.667969 327.855469 C 257.945312 327.855469 314.921875 307.769531 314.921875 282.996094 C 314.921875 237.90625 281.96875 200.523438 238.816406 193.550781 Z M 238.816406 193.550781 " fill-opacity="1" fill-rule="nonzero"/></g><g clip-path="url(#06558fc36d)"><path fill="#000000" d="M 148.105469 260.628906 C 148.105469 254.226562 143.90625 249.039062 138.734375 249.039062 C 133.558594 249.039062 129.359375 254.226562 129.359375 260.628906 C 129.359375 261.628906 133.558594 262.441406 138.734375 262.441406 C 143.90625 262.441406 148.105469 261.628906 148.105469 260.628906 Z M 138.734375 238.441406 C 141.554688 238.441406 143.839844 240.710938 143.839844 243.511719 C 143.839844 246.3125 141.554688 248.582031 138.734375 248.582031 C 135.910156 248.582031 133.625 246.3125 133.625 243.511719 C 133.625 240.710938 135.910156 238.441406 138.734375 238.441406 Z M 138.734375 238.441406 " fill-opacity="1" fill-rule="evenodd"/></g><g clip-path="url(#ea74b718af)"><path fill="#000000" d="M 271.351562 240.664062 C 265.472656 234.785156 257.65625 231.550781 249.34375 231.550781 C 241.03125 231.550781 233.214844 234.785156 227.335938 240.664062 C 221.457031 246.542969 218.21875 254.359375 218.21875 262.675781 C 218.21875 270.988281 221.457031 278.804688 227.335938 284.683594 C 233.214844 290.5625 241.03125 293.796875 249.34375 293.796875 C 257.65625 293.796875 265.472656 290.5625 271.351562 284.683594 C 277.230469 278.804688 280.46875 270.988281 280.46875 262.675781 C 280.46875 254.359375 277.230469 246.542969 271.351562 240.664062 Z M 228.746094 242.078125 C 234.25 236.578125 241.5625 233.546875 249.34375 233.546875 C 257.125 233.546875 264.4375 236.578125 269.9375 242.078125 C 275.441406 247.578125 278.46875 254.894531 278.46875 262.675781 C 278.46875 269.140625 276.375 275.285156 272.507812 280.335938 C 269.429688 276.035156 264.515625 273.492188 259.179688 273.492188 L 239.507812 273.492188 C 234.167969 273.492188 229.253906 276.035156 226.179688 280.335938 C 222.3125 275.285156 220.214844 269.140625 220.214844 262.675781 C 220.214844 254.894531 223.246094 247.578125 228.746094 242.078125 Z M 249.34375 271.851562 C 257.339844 271.851562 263.847656 265.34375 263.847656 257.347656 C 263.847656 249.351562 257.339844 242.84375 249.34375 242.84375 C 241.347656 242.84375 234.839844 249.351562 234.839844 257.347656 C 234.839844 265.34375 241.347656 271.851562 249.34375 271.851562 Z M 249.34375 271.851562 " fill-opacity="1" fill-rule="nonzero"/></g><g clip-path="url(#0abb673b3f)"><path fill="#000000" d="M 155.242188 253.445312 C 155.242188 247.042969 151.042969 241.855469 145.871094 241.855469 C 140.695312 241.855469 136.496094 247.042969 136.496094 253.445312 C 136.496094 254.445312 140.695312 255.257812 145.871094 255.257812 C 151.042969 255.257812 155.242188 254.445312 155.242188 253.445312 Z M 145.871094 231.257812 C 148.691406 231.257812 150.976562 233.527344 150.976562 236.328125 C 150.976562 239.128906 148.691406 241.398438 145.871094 241.398438 C 143.046875 241.398438 140.761719 239.128906 140.761719 236.328125 C 140.761719 233.527344 143.046875 231.257812 145.871094 231.257812 Z M 145.871094 231.257812 " fill-opacity="1" fill-rule="evenodd"/></g></svg>